<svg width="510" height="571" viewBox="0 0 510 571" fill="none" xmlns="http://www.w3.org/2000/svg">
<path d="M128.45 0H6.13867V177.28H128.45V0Z" fill="#E0E0E0"/>
<path d="M122.324 0H0.012207V177.28H122.324V0Z" fill="#F5F5F5"/>
<path d="M107.135 19.2078H15.2129V158.084H107.135V19.2078Z" fill="white"/>
<path d="M107.123 158.084C107.123 158.084 107.123 157.853 107.123 157.402C107.123 156.951 107.123 156.294 107.123 155.441C107.123 153.687 107.123 151.129 107.123 147.816C107.123 141.166 107.123 131.459 107.038 119.206C107.038 94.7239 106.953 60.0474 106.892 19.2079L107.196 19.5124L15.225 19.5367L15.5538 19.2079C15.5538 71.5819 15.5538 119.9 15.4807 158.06L15.225 157.792L82.1175 157.938H100.607H105.479C106.587 157.938 107.16 157.938 107.16 157.938C107.16 157.938 106.624 157.938 105.54 157.938H100.741H82.3124L15.2128 158.389H14.9083V158.121C14.9083 119.936 14.9083 71.6428 14.8352 19.2688V18.9277H15.1884H107.087H107.476V19.2322C107.476 60.1449 107.367 94.8944 107.33 119.437C107.33 131.617 107.33 141.361 107.245 147.975C107.245 151.263 107.245 153.797 107.245 155.526C107.245 156.367 107.245 157.012 107.245 157.463C107.245 157.914 107.123 158.084 107.123 158.084Z" fill="#E0E0E0"/>
<path d="M122.665 0.0488281C122.039 1.17082 121.309 2.23114 120.484 3.21563C119.059 5.11571 117.05 7.71005 114.748 10.5236C112.446 13.3372 110.29 15.7976 108.658 17.5515C107.848 18.5432 106.951 19.4604 105.978 20.292C106.663 19.211 107.442 18.1921 108.304 17.247C109.949 15.2495 111.958 12.8013 114.2 10.0973L120.082 2.94767C120.865 1.91423 121.728 0.944876 122.665 0.0488281Z" fill="#E0E0E0"/>
<path d="M107.598 157.634C112.162 164.903 117.54 171.63 123.627 177.682L107.598 157.634Z" fill="white"/>
<path d="M123.627 177.682C122.606 176.939 121.666 176.09 120.826 175.148C118.681 172.98 116.648 170.703 114.736 168.328C112.833 165.954 111.057 163.482 109.413 160.922C108.68 159.893 108.055 158.791 107.549 157.634C108.367 158.589 109.12 159.598 109.803 160.654C111.142 162.554 113.043 165.136 115.247 167.962C117.452 170.788 119.571 173.139 121.118 174.868C122.02 175.746 122.858 176.686 123.627 177.682Z" fill="#E0E0E0"/>
<path d="M0 177.146L16.0167 157.378L0 177.146Z" fill="white"/>
<path d="M16.0167 157.378C13.6145 160.881 11.0245 164.252 8.25804 167.475C5.66957 170.835 2.9134 174.063 0 177.146C2.40015 173.644 4.98601 170.274 7.74648 167.049C10.3325 163.683 13.093 160.455 16.0167 157.378Z" fill="#E0E0E0"/>
<path d="M0.012207 0.0488281C2.76935 3.00318 5.36347 6.10556 7.78305 9.34217C10.4001 12.4504 12.8399 15.7035 15.091 19.0862C12.3322 16.1291 9.73799 13.0226 7.32021 9.78065C4.70186 6.67774 2.26192 3.42856 0.012207 0.0488281Z" fill="#E0E0E0"/>
<path d="M78.4878 47.4045H47.709V134.796H78.4878V47.4045Z" fill="#E0E0E0"/>
<path d="M442.097 382.014H223.844V482.669H442.097V382.014Z" fill="#F5F5F5"/>
<path d="M436.909 477.931H228.838V387.373H436.909V477.931ZM230.19 476.579H435.545V388.676H230.19V476.579Z" fill="#E0E0E0"/>
<path d="M495.422 382.014H442.098V482.669H495.422V382.014Z" fill="#E0E0E0"/>
<path d="M229.52 415.387H436.227C436.289 415.373 436.346 415.339 436.386 415.289C436.427 415.239 436.449 415.177 436.449 415.113C436.449 415.048 436.427 414.986 436.386 414.936C436.346 414.886 436.289 414.852 436.227 414.839H229.52C229.457 414.852 229.401 414.886 229.36 414.936C229.32 414.986 229.298 415.048 229.298 415.113C229.298 415.177 229.32 415.239 229.36 415.289C229.401 415.339 229.457 415.373 229.52 415.387Z" fill="#E0E0E0"/>
<path d="M333.549 415.082C334.122 405.977 334.146 396.846 333.622 387.738C333.622 387.664 333.593 387.593 333.54 387.54C333.488 387.488 333.416 387.458 333.342 387.458C333.268 387.458 333.197 387.488 333.144 387.54C333.092 387.593 333.062 387.664 333.062 387.738C332.532 396.846 332.557 405.977 333.135 415.082C333.135 415.137 333.157 415.19 333.196 415.229C333.235 415.267 333.287 415.289 333.342 415.289C333.397 415.289 333.45 415.267 333.489 415.229C333.527 415.19 333.549 415.137 333.549 415.082Z" fill="#E0E0E0"/>
<path d="M389.188 401.416C389.188 401.976 389.022 402.523 388.711 402.988C388.4 403.452 387.957 403.815 387.44 404.028C386.923 404.242 386.355 404.297 385.806 404.187C385.258 404.077 384.754 403.807 384.359 403.41C383.965 403.014 383.697 402.509 383.589 401.96C383.481 401.411 383.539 400.843 383.755 400.327C383.97 399.81 384.335 399.37 384.801 399.061C385.267 398.752 385.815 398.588 386.374 398.591C387.121 398.594 387.837 398.893 388.364 399.423C388.892 399.952 389.188 400.669 389.188 401.416Z" fill="#E0E0E0"/>
<path d="M280.7 401.416C280.698 401.972 280.531 402.515 280.22 402.976C279.91 403.437 279.469 403.796 278.955 404.007C278.441 404.218 277.875 404.272 277.33 404.162C276.785 404.052 276.285 403.783 275.893 403.389C275.501 402.995 275.234 402.494 275.126 401.949C275.019 401.403 275.075 400.838 275.289 400.325C275.502 399.811 275.863 399.373 276.325 399.064C276.787 398.755 277.331 398.591 277.887 398.591C278.257 398.591 278.624 398.664 278.966 398.806C279.308 398.948 279.619 399.156 279.881 399.419C280.142 399.682 280.349 399.993 280.49 400.336C280.63 400.679 280.702 401.046 280.7 401.416Z" fill="#E0E0E0"/>
<path d="M335.693 432.621C335.695 433.181 335.532 433.728 335.223 434.195C334.914 434.661 334.473 435.025 333.957 435.241C333.441 435.457 332.872 435.514 332.323 435.407C331.775 435.299 331.27 435.031 330.873 434.636C330.477 434.241 330.207 433.738 330.097 433.189C329.987 432.641 330.042 432.072 330.255 431.555C330.469 431.038 330.831 430.596 331.296 430.285C331.761 429.974 332.308 429.808 332.867 429.808C333.238 429.806 333.605 429.878 333.948 430.019C334.29 430.159 334.602 430.366 334.865 430.628C335.127 430.889 335.336 431.2 335.478 431.542C335.62 431.884 335.693 432.251 335.693 432.621Z" fill="#E0E0E0"/>
<path d="M249.934 482.681L238.704 545.871H245.025L265.743 482.681H249.934Z" fill="#E0E0E0"/>
<path d="M426.665 482.681L436.056 545.981H429.735L410.856 482.681H426.665Z" fill="#E0E0E0"/>
<path d="M468.857 482.681L479.502 545.981H473.181L453.047 482.681H468.857Z" fill="#E0E0E0"/>
<path d="M335.498 461.11C335.498 461.667 335.333 462.211 335.024 462.674C334.715 463.136 334.275 463.497 333.761 463.71C333.247 463.923 332.682 463.979 332.136 463.87C331.59 463.761 331.089 463.494 330.695 463.1C330.302 462.707 330.034 462.205 329.925 461.659C329.817 461.114 329.872 460.548 330.085 460.034C330.298 459.52 330.659 459.08 331.122 458.771C331.584 458.462 332.128 458.297 332.685 458.297C333.055 458.295 333.421 458.367 333.763 458.508C334.105 458.649 334.416 458.856 334.678 459.117C334.939 459.379 335.147 459.69 335.287 460.032C335.428 460.374 335.5 460.741 335.498 461.11Z" fill="#E0E0E0"/>
<path d="M229.52 446.531H436.227C436.289 446.518 436.346 446.483 436.386 446.433C436.427 446.383 436.449 446.321 436.449 446.257C436.449 446.193 436.427 446.13 436.386 446.081C436.346 446.031 436.289 445.996 436.227 445.983H229.52C229.457 445.996 229.401 446.031 229.36 446.081C229.32 446.13 229.298 446.193 229.298 446.257C229.298 446.321 229.32 446.383 229.36 446.433C229.401 446.483 229.457 446.518 229.52 446.531Z" fill="#E0E0E0"/>
<path d="M332.904 478.053H320.419V539.403H332.904V478.053Z" fill="#E0E0E0"/>
<path d="M340.2 502.596H320.797V570.974H340.2V502.596Z" fill="#F5F5F5"/>
<path d="M351.576 546.163C351.121 539.704 351.121 533.22 351.576 526.761C352.014 533.221 352.014 539.703 351.576 546.163Z" fill="#E0E0E0"/>
<path d="M354.438 546.163C354 539.703 354 533.221 354.438 526.761C354.893 533.22 354.893 539.704 354.438 546.163Z" fill="#E0E0E0"/>
<path d="M306.656 546.163C306.218 539.703 306.218 533.221 306.656 526.761C307.095 533.221 307.095 539.703 306.656 546.163Z" fill="#E0E0E0"/>
<path d="M309.53 546.163C309.092 539.703 309.092 533.221 309.53 526.761C309.969 533.221 309.969 539.703 309.53 546.163Z" fill="#E0E0E0"/>
<path d="M315.754 536.773C315.754 536.59 322.66 536.444 331.162 536.444C339.664 536.444 346.57 536.59 346.57 536.773C346.57 536.955 339.676 537.114 331.162 537.114C322.648 537.114 315.754 536.968 315.754 536.773Z" fill="#E0E0E0"/>
<path d="M354.438 478.576H341.954V562.947H354.438V478.576Z" fill="#EBEBEB"/>
<path d="M378.335 525.238C377.533 525.248 376.747 525.019 376.075 524.58C375.404 524.142 374.878 523.514 374.565 522.776C374.251 522.038 374.164 521.223 374.315 520.436C374.465 519.648 374.846 518.923 375.41 518.353C375.973 517.782 376.694 517.392 377.479 517.232C378.265 517.072 379.081 517.149 379.822 517.454C380.564 517.759 381.199 518.277 381.645 518.943C382.092 519.609 382.33 520.392 382.33 521.194C382.333 521.722 382.233 522.245 382.034 522.734C381.835 523.223 381.541 523.668 381.17 524.044C380.799 524.419 380.358 524.718 379.871 524.923C379.385 525.128 378.863 525.235 378.335 525.238Z" fill="#E0E0E0"/>
<path d="M340.382 492.961H337.885V549.44H340.382V492.961Z" fill="#E0E0E0"/>
<path d="M505.835 16.6257H181.263V341.198H505.835V16.6257Z" fill="#FAFAFA"/>
<path d="M505.835 341.198C505.835 338.86 505.726 211.25 505.567 16.6257L505.835 16.9058H181.299L181.616 16.5891C181.616 135.454 181.616 246.791 181.616 341.162L181.336 340.894L505.908 341.162L181.336 341.442H181.068V341.162C181.068 246.84 181.068 135.454 181.068 16.5891V16.2725H181.421H505.957H506.237V16.5404C505.945 211.25 505.848 338.86 505.835 341.198Z" fill="#263238"/>
<path d="M277.582 57.8916H281.139V64.7246C279.155 66.1364 276.777 66.8865 274.342 66.8683C269.056 66.8683 265.159 63.2143 265.159 58.1596C265.159 53.1049 269.056 49.4509 274.415 49.4509C275.735 49.3978 277.051 49.6366 278.268 50.1503C279.484 50.664 280.573 51.44 281.456 52.4228L279.02 54.737C278.472 54.125 277.8 53.6383 277.047 53.3104C276.294 52.9825 275.48 52.8209 274.659 52.8369C273.231 52.8369 271.862 53.4041 270.852 54.4137C269.843 55.4233 269.276 56.7927 269.276 58.2205C269.276 59.6483 269.843 61.0176 270.852 62.0272C271.862 63.0368 273.231 63.604 274.659 63.604C275.715 63.6245 276.758 63.3773 277.692 62.8854L277.582 57.8916Z" fill="#FCBA04"/>
<path d="M297.082 61.168H287.338C287.54 61.9637 288.019 62.6616 288.688 63.1369C289.358 63.6122 290.174 63.8338 290.992 63.7623C291.589 63.7907 292.185 63.6974 292.744 63.488C293.303 63.2786 293.813 62.9575 294.244 62.5443L296.266 64.6758C295.585 65.3945 294.754 65.9547 293.832 66.3167C292.91 66.6787 291.92 66.8337 290.931 66.7708C286.449 66.7708 283.538 63.9572 283.538 60.1083C283.527 59.2096 283.7 58.318 284.046 57.4886C284.393 56.6592 284.905 55.9094 285.552 55.2853C286.199 54.6613 286.967 54.1761 287.808 53.8598C288.649 53.5435 289.546 53.4026 290.444 53.4459C291.339 53.3988 292.234 53.54 293.071 53.8603C293.908 54.1805 294.668 54.6728 295.303 55.3053C295.937 55.9378 296.433 56.6964 296.756 57.5321C297.079 58.3678 297.224 59.262 297.18 60.157C297.155 60.4494 297.107 60.8513 297.082 61.168ZM287.241 58.9756H293.623C293.491 58.2248 293.099 57.5446 292.516 57.0544C291.932 56.5642 291.194 56.2955 290.432 56.2955C289.67 56.2955 288.932 56.5642 288.348 57.0544C287.765 57.5446 287.373 58.2248 287.241 58.9756Z" fill="#FCBA04"/>
<path d="M307.996 65.9546C307.081 66.526 306.016 66.8103 304.938 66.7706C301.893 66.7706 300.066 65.1994 300.066 62.1301V56.8074H298.081V53.9208H300.066V50.7783H303.818V53.9208H307.046V56.8074H303.818V62.0814C303.788 62.305 303.809 62.5324 303.878 62.747C303.948 62.9616 304.065 63.1579 304.22 63.3215C304.375 63.485 304.565 63.6117 304.776 63.6922C304.987 63.7727 305.213 63.8049 305.438 63.7866C305.981 63.7973 306.513 63.6258 306.948 63.2994L307.996 65.9546Z" fill="#FCBA04"/>
<path d="M316.461 49.7431C316.466 49.4497 316.532 49.1605 316.654 48.8935C316.776 48.6265 316.951 48.3874 317.169 48.191C317.388 47.9946 317.644 47.8451 317.922 47.7517C318.2 47.6583 318.495 47.6231 318.787 47.6481C319.076 47.6161 319.368 47.644 319.645 47.7301C319.922 47.8162 320.178 47.9586 320.398 48.1484C320.617 48.3382 320.795 48.5714 320.921 48.8332C321.046 49.0951 321.116 49.3799 321.126 49.67C321.093 50.2608 320.838 50.8174 320.412 51.2276C319.985 51.6377 319.419 51.8709 318.827 51.8802C318.236 51.8895 317.662 51.6741 317.223 51.2775C316.784 50.8809 316.512 50.3326 316.461 49.7431ZM316.972 53.6407H320.626V66.5759H316.972V53.6407Z" fill="#FCBA04"/>
<path d="M337.374 59.1705V66.576H333.622V59.7308C333.622 57.648 332.66 56.6858 331.004 56.6858C329.347 56.6858 327.91 57.782 327.91 60.1693V66.5638H324.158V53.6408H327.739V55.1511C328.292 54.5828 328.959 54.1373 329.696 53.8436C330.432 53.5498 331.222 53.4143 332.015 53.4459C335.072 53.4459 337.374 55.2242 337.374 59.1705Z" fill="#FCBA04"/>
<path d="M355.948 65.9546C355.037 66.5244 353.977 66.8086 352.903 66.7707C349.846 66.7707 348.031 65.1994 348.031 62.1301V56.8074H346.034V53.9208H348.031V50.7783H351.783V53.9208H354.998V56.8074H351.783V62.0814C351.751 62.3043 351.77 62.5316 351.838 62.7462C351.906 62.9609 352.021 63.1575 352.176 63.3214C352.33 63.4852 352.52 63.6121 352.73 63.6927C352.94 63.7732 353.166 63.8053 353.39 63.7866C353.934 63.7973 354.466 63.6258 354.901 63.2994L355.948 65.9546Z" fill="#FCBA04"/>
<path d="M356.655 60.1083C356.655 56.2107 359.663 53.4458 363.78 53.4458C367.897 53.4458 370.869 56.2107 370.869 60.1083C370.869 64.0059 367.897 66.7707 363.78 66.7707C359.663 66.7707 356.655 64.0059 356.655 60.1083ZM367.069 60.1083C367.017 59.466 366.778 58.8528 366.383 58.3439C365.988 57.835 365.453 57.4525 364.843 57.2431C364.234 57.0337 363.576 57.0066 362.952 57.1651C362.327 57.3235 361.762 57.6607 361.327 58.1354C360.891 58.61 360.603 59.2014 360.498 59.8372C360.393 60.473 360.476 61.1256 360.736 61.715C360.997 62.3045 361.423 62.8052 361.964 63.1558C362.505 63.5065 363.136 63.6918 363.78 63.6892C364.239 63.6967 364.695 63.6069 365.117 63.4255C365.539 63.2442 365.918 62.9756 366.229 62.6373C366.539 62.299 366.775 61.8987 366.92 61.4628C367.064 61.0269 367.115 60.5652 367.069 60.1083Z" fill="#FCBA04"/>
<path d="M386.398 53.6406V66.5758H382.83V65.0411C382.325 65.6 381.706 66.0437 381.014 66.3421C380.323 66.6405 379.575 66.7867 378.822 66.7707C375.57 66.7707 373.281 64.9437 373.281 60.9486V53.6406H377.032V60.4005C377.032 62.5564 377.994 63.5186 379.663 63.5186C381.331 63.5186 382.647 62.4102 382.647 60.0351V53.6406H386.398Z" fill="#FCBA04"/>
<path d="M388.932 60.1082C388.932 56.2106 391.928 53.4458 396.142 53.4458C397.326 53.3534 398.511 53.6171 399.544 54.2031C400.577 54.7891 401.412 55.6706 401.94 56.7344L399.029 58.3056C398.761 57.7697 398.349 57.3193 397.839 57.0051C397.329 56.6909 396.741 56.5254 396.142 56.5273C395.193 56.5273 394.282 56.9046 393.61 57.5762C392.939 58.2477 392.561 59.1585 392.561 60.1082C392.561 61.058 392.939 61.9688 393.61 62.6403C394.282 63.3119 395.193 63.6892 396.142 63.6892C396.747 63.7015 397.342 63.5406 397.858 63.2255C398.373 62.9104 398.788 62.4542 399.053 61.9109L401.964 63.4943C401.427 64.5556 400.587 65.4336 399.551 66.0169C398.514 66.6002 397.328 66.8626 396.142 66.7707C391.928 66.7707 388.932 64.0058 388.932 60.1082Z" fill="#FCBA04"/>
<path d="M417.226 59.1705V66.576H413.474V59.7308C413.474 57.648 412.512 56.6858 410.856 56.6858C409.199 56.6858 407.75 57.782 407.75 60.1693V66.5638H403.998V48.7688H407.75V54.9806C408.3 54.4652 408.948 54.0641 409.654 53.8007C410.361 53.5372 411.113 53.4167 411.867 53.4459C414.924 53.4459 417.226 55.2242 417.226 59.1705Z" fill="#FCBA04"/>
<path d="M429.698 79.718C429.698 79.8886 389.991 80.0347 341.028 80.0347C292.064 80.0347 252.37 79.8886 252.37 79.718C252.37 79.5475 292.052 79.4014 341.028 79.4014C390.004 79.4014 429.698 79.5475 429.698 79.718Z" fill="#263238"/>
<path d="M458.345 135.649C458.345 135.649 458.345 135.234 458.345 134.431C458.345 133.627 458.345 132.457 458.345 130.923C458.345 127.817 458.345 123.249 458.345 117.269L458.455 117.391L223.552 117.586L223.868 117.269V135.636L223.552 135.32L390.211 135.454L440.149 135.551H453.693H457.225H458.443H457.225H453.741H440.27L390.332 135.649L223.466 135.782H223.15V116.977H223.479L458.382 117.171H458.504V117.293C458.504 123.298 458.504 127.902 458.443 131.008C458.443 132.543 458.443 133.7 458.443 134.504C458.443 135.307 458.345 135.649 458.345 135.649Z" fill="#263238"/>
<path d="M228.947 104.334V109.669H227.936L225.281 106.429V109.669H224.063V104.334H225.074L227.729 107.574V104.334H228.947Z" fill="#263238"/>
<path d="M233.758 107.33V109.669H232.638V109.157C232.503 109.351 232.319 109.505 232.105 109.606C231.892 109.706 231.655 109.749 231.42 109.73C230.458 109.73 229.885 109.194 229.885 108.512C229.885 107.83 230.397 107.294 231.651 107.294H232.589C232.589 106.782 232.285 106.49 231.651 106.49C231.215 106.478 230.787 106.611 230.433 106.867L230.007 106.039C230.533 105.701 231.148 105.527 231.773 105.54C233.028 105.503 233.758 106.088 233.758 107.33ZM232.54 108.365V107.951H231.712C231.164 107.951 230.981 108.158 230.981 108.426C230.981 108.694 231.237 108.926 231.651 108.926C231.844 108.949 232.04 108.906 232.205 108.804C232.371 108.703 232.498 108.548 232.565 108.365H232.54Z" fill="#263238"/>
<path d="M241.749 107.318V109.669H240.531V107.501C240.531 106.843 240.226 106.538 239.751 106.538C239.276 106.538 238.85 106.879 238.85 107.61V109.669H237.632V107.501C237.632 106.843 237.352 106.538 236.852 106.538C236.353 106.538 235.951 106.879 235.951 107.61V109.669H234.733V105.564H235.866V106.015C236.029 105.837 236.229 105.698 236.452 105.605C236.675 105.512 236.916 105.469 237.157 105.479C237.419 105.463 237.681 105.517 237.916 105.634C238.152 105.752 238.352 105.929 238.497 106.149C238.678 105.932 238.906 105.76 239.163 105.644C239.42 105.528 239.7 105.471 239.983 105.479C240.229 105.447 240.479 105.473 240.713 105.555C240.947 105.637 241.158 105.773 241.33 105.952C241.502 106.131 241.63 106.348 241.702 106.585C241.775 106.822 241.791 107.073 241.749 107.318Z" fill="#263238"/>
<path d="M246.852 107.951H243.758C243.822 108.216 243.982 108.447 244.207 108.601C244.433 108.754 244.707 108.817 244.976 108.78C245.165 108.787 245.354 108.755 245.53 108.686C245.706 108.617 245.866 108.512 245.999 108.378L246.633 109.06C246.305 109.352 245.905 109.551 245.474 109.635C245.044 109.718 244.598 109.684 244.185 109.536C243.772 109.387 243.407 109.13 243.128 108.791C242.849 108.452 242.667 108.044 242.601 107.61C242.599 107.326 242.655 107.044 242.766 106.782C242.876 106.519 243.039 106.283 243.244 106.085C243.449 105.888 243.693 105.735 243.959 105.635C244.225 105.535 244.509 105.49 244.794 105.503C245.078 105.487 245.362 105.532 245.628 105.633C245.893 105.735 246.135 105.891 246.336 106.092C246.537 106.293 246.694 106.535 246.795 106.801C246.897 107.066 246.941 107.351 246.925 107.635C246.906 107.741 246.882 107.847 246.852 107.951ZM243.734 107.257H245.756C245.718 107.016 245.596 106.796 245.41 106.637C245.225 106.479 244.989 106.391 244.745 106.391C244.501 106.391 244.265 106.479 244.079 106.637C243.894 106.796 243.771 107.016 243.734 107.257Z" fill="#263238"/>
<path d="M458.345 181.531C458.345 181.531 458.345 181.117 458.345 180.313C458.345 179.509 458.345 178.339 458.345 176.805C458.345 173.699 458.345 169.131 458.345 163.151L458.455 163.273L223.552 163.468L223.868 163.151V181.531L223.552 181.214L390.211 181.348L440.149 181.445H453.693H457.225H458.443H457.225H453.741H440.27L390.332 181.543L223.466 181.677H223.15V162.676H223.479L458.382 162.883H458.504V162.993C458.504 168.997 458.504 173.601 458.443 176.707C458.443 178.242 458.443 179.399 458.443 180.203C458.443 181.007 458.345 181.531 458.345 181.531Z" fill="#263238"/>
<path d="M458.346 273.624C458.346 273.624 458.346 273.197 458.346 272.406C458.346 271.614 458.346 270.347 458.346 268.752C458.346 265.512 458.346 260.749 458.346 254.574C458.346 242.212 458.285 224.124 458.236 201.482L458.431 201.689L223.527 201.798L223.844 201.482C223.844 226.475 223.844 250.762 223.844 273.672L223.539 273.368L391.502 273.502L440.66 273.599H453.863H457.286H458.504H457.371H453.985H440.855L391.77 273.685L223.588 273.819H223.271V201.116H223.6L458.504 201.238H458.711V201.433C458.711 224.185 458.626 242.248 458.601 254.647C458.601 260.81 458.601 265.609 458.601 268.776C458.601 270.372 458.601 271.577 458.601 272.43C458.601 273.283 458.346 273.624 458.346 273.624Z" fill="#263238"/>
<path d="M228.192 154.516V155.514H224.063V150.179H228.058V151.166H225.245V152.384H227.681V153.346H225.245V154.564L228.192 154.516Z" fill="#263238"/>
<path d="M236.012 153.164V155.514H234.794V153.346C234.794 152.688 234.501 152.384 234.026 152.384C233.551 152.384 233.113 152.725 233.113 153.456V155.514H231.895V153.346C231.895 152.688 231.603 152.384 231.115 152.384C230.628 152.384 230.214 152.725 230.214 153.456V155.514H228.996V151.41H230.141V151.885C230.302 151.707 230.5 151.567 230.721 151.474C230.942 151.381 231.18 151.339 231.42 151.349C231.684 151.334 231.947 151.389 232.184 151.506C232.421 151.623 232.623 151.8 232.772 152.019C232.951 151.803 233.177 151.631 233.432 151.515C233.687 151.399 233.965 151.342 234.246 151.349C234.489 151.32 234.735 151.348 234.966 151.429C235.197 151.511 235.406 151.645 235.576 151.82C235.747 151.996 235.875 152.208 235.951 152.441C236.026 152.674 236.047 152.921 236.012 153.164Z" fill="#263238"/>
<path d="M240.701 153.176V155.514H239.593V155.003C239.457 155.195 239.273 155.349 239.059 155.45C238.846 155.55 238.61 155.593 238.375 155.575C237.413 155.575 236.84 155.039 236.84 154.357C236.84 153.675 237.352 153.139 238.606 153.139H239.544C239.544 152.628 239.24 152.335 238.606 152.335C238.17 152.324 237.742 152.456 237.388 152.713L236.962 151.885C237.488 151.547 238.103 151.374 238.728 151.385C239.983 151.349 240.701 151.933 240.701 153.176ZM239.483 154.211V153.797H238.679C238.119 153.797 237.936 154.004 237.936 154.272C237.936 154.54 238.192 154.771 238.618 154.771C238.808 154.788 238.997 154.743 239.158 154.642C239.319 154.54 239.441 154.389 239.508 154.211H239.483Z" fill="#263238"/>
<path d="M241.627 150.179C241.628 150.085 241.649 149.993 241.688 149.907C241.726 149.822 241.782 149.745 241.852 149.682C241.922 149.619 242.004 149.571 242.093 149.542C242.182 149.512 242.276 149.501 242.37 149.509C242.461 149.501 242.554 149.511 242.641 149.54C242.729 149.568 242.81 149.613 242.879 149.674C242.948 149.734 243.005 149.808 243.045 149.89C243.085 149.973 243.108 150.063 243.113 150.155C243.113 150.352 243.035 150.541 242.895 150.68C242.756 150.82 242.567 150.898 242.37 150.898C242.173 150.898 241.984 150.82 241.845 150.68C241.705 150.541 241.627 150.352 241.627 150.155V150.179ZM241.773 151.397H242.991V155.502H241.773V151.397Z" fill="#263238"/>
<path d="M244.063 149.863H245.281V155.514H244.063V149.863Z" fill="#263238"/>
<path d="M252.138 153.176V155.514H251.03V155.003C250.894 155.195 250.71 155.349 250.496 155.45C250.283 155.55 250.047 155.593 249.812 155.575C248.85 155.575 248.289 155.039 248.289 154.357C248.289 153.675 248.789 153.139 250.043 153.139H250.993C250.993 152.628 250.689 152.335 250.043 152.335C249.607 152.325 249.179 152.458 248.825 152.713L248.399 151.885C248.925 151.547 249.54 151.374 250.165 151.385C251.42 151.349 252.138 151.933 252.138 153.176ZM250.92 154.211V153.797H250.104C249.544 153.797 249.373 154.004 249.373 154.272C249.373 154.54 249.617 154.771 250.043 154.771C250.236 154.79 250.429 154.745 250.594 154.644C250.759 154.543 250.886 154.391 250.957 154.211H250.92Z" fill="#263238"/>
<path d="M257.437 149.863V155.514H256.304V155.039C256.143 155.22 255.943 155.362 255.72 155.455C255.496 155.548 255.254 155.589 255.013 155.575C254.48 155.535 253.982 155.295 253.619 154.903C253.256 154.511 253.054 153.996 253.054 153.462C253.054 152.928 253.256 152.413 253.619 152.021C253.982 151.629 254.48 151.389 255.013 151.349C255.24 151.337 255.467 151.376 255.678 151.462C255.888 151.549 256.077 151.68 256.231 151.848V149.863H257.437ZM256.219 153.456C256.2 153.254 256.123 153.062 255.997 152.903C255.871 152.744 255.701 152.625 255.509 152.56C255.317 152.496 255.11 152.488 254.913 152.539C254.717 152.59 254.54 152.697 254.403 152.846C254.266 152.996 254.175 153.182 254.142 153.382C254.109 153.582 254.135 153.788 254.216 153.974C254.297 154.159 254.431 154.317 254.601 154.429C254.77 154.54 254.968 154.6 255.171 154.601C255.316 154.61 255.462 154.588 255.598 154.536C255.734 154.485 255.858 154.406 255.961 154.304C256.065 154.201 256.145 154.078 256.198 153.943C256.251 153.807 256.274 153.662 256.267 153.517L256.219 153.456Z" fill="#263238"/>
<path d="M262.71 149.863V155.514H261.565V155.039C261.413 155.212 261.226 155.349 261.016 155.441C260.805 155.534 260.577 155.58 260.347 155.575C259.815 155.535 259.317 155.295 258.954 154.903C258.59 154.511 258.389 153.996 258.389 153.462C258.389 152.928 258.59 152.413 258.954 152.021C259.317 151.629 259.815 151.389 260.347 151.349C260.575 151.337 260.802 151.376 261.012 151.462C261.223 151.549 261.412 151.68 261.565 151.848V149.863H262.71ZM261.492 153.456C261.474 153.254 261.396 153.062 261.27 152.903C261.145 152.744 260.975 152.625 260.783 152.56C260.591 152.496 260.384 152.488 260.187 152.539C259.991 152.59 259.814 152.697 259.677 152.846C259.54 152.996 259.449 153.182 259.416 153.382C259.383 153.582 259.409 153.788 259.49 153.974C259.571 154.159 259.705 154.317 259.874 154.429C260.044 154.54 260.242 154.6 260.445 154.601C260.59 154.61 260.735 154.588 260.872 154.536C261.008 154.485 261.132 154.406 261.235 154.304C261.338 154.201 261.419 154.078 261.472 153.943C261.525 153.807 261.548 153.662 261.541 153.517L261.492 153.456Z" fill="#263238"/>
<path d="M266.34 151.349V152.445H266.072C265.921 152.432 265.77 152.454 265.628 152.508C265.487 152.562 265.359 152.647 265.255 152.757C265.151 152.867 265.073 152.999 265.027 153.143C264.981 153.287 264.967 153.44 264.988 153.59V155.526H263.77V151.422H264.915V151.97C265.081 151.754 265.298 151.584 265.547 151.475C265.797 151.367 266.069 151.323 266.34 151.349Z" fill="#263238"/>
<path d="M271.005 153.797H267.911C267.975 154.061 268.135 154.293 268.36 154.446C268.586 154.599 268.86 154.663 269.129 154.625C269.318 154.631 269.506 154.599 269.682 154.53C269.858 154.461 270.018 154.356 270.152 154.223L270.786 154.905C270.459 155.198 270.058 155.396 269.628 155.48C269.197 155.564 268.751 155.53 268.338 155.381C267.925 155.233 267.56 154.976 267.281 154.637C267.002 154.298 266.82 153.89 266.754 153.456C266.752 153.171 266.808 152.889 266.919 152.627C267.029 152.365 267.192 152.128 267.397 151.931C267.603 151.734 267.846 151.58 268.112 151.48C268.378 151.38 268.662 151.335 268.947 151.349C269.23 151.335 269.514 151.38 269.779 151.482C270.043 151.585 270.284 151.741 270.485 151.942C270.686 152.143 270.842 152.383 270.944 152.648C271.046 152.913 271.092 153.197 271.078 153.48C271.059 153.587 271.035 153.693 271.005 153.797ZM267.887 153.103H269.909C269.871 152.861 269.749 152.642 269.563 152.483C269.378 152.324 269.142 152.237 268.898 152.237C268.654 152.237 268.418 152.324 268.232 152.483C268.047 152.642 267.925 152.861 267.887 153.103Z" fill="#263238"/>
<path d="M271.419 155.125L271.821 154.272C272.25 154.534 272.743 154.673 273.246 154.674C273.794 154.674 274.001 154.528 274.001 154.296C274.001 153.626 271.565 154.296 271.565 152.676C271.565 151.897 272.26 151.349 273.453 151.349C274.003 151.338 274.547 151.464 275.037 151.714L274.635 152.555C274.265 152.343 273.843 152.237 273.417 152.25C272.893 152.25 272.662 152.421 272.662 152.628C272.662 153.334 275.098 152.628 275.098 154.272C275.098 155.027 274.391 155.575 273.161 155.575C272.551 155.579 271.951 155.424 271.419 155.125Z" fill="#263238"/>
<path d="M275.463 155.125L275.865 154.272C276.294 154.534 276.787 154.673 277.29 154.674C277.838 154.674 278.045 154.528 278.045 154.296C278.045 153.626 275.609 154.296 275.609 152.676C275.609 151.897 276.303 151.349 277.497 151.349C278.047 151.338 278.591 151.464 279.08 151.714L278.678 152.555C278.308 152.343 277.887 152.237 277.46 152.25C276.937 152.25 276.705 152.421 276.705 152.628C276.705 153.334 279.141 152.628 279.141 154.272C279.141 155.027 278.435 155.575 277.205 155.575C276.595 155.579 275.994 155.424 275.463 155.125Z" fill="#263238"/>
<path d="M228.911 195.379V192.176L227.352 194.819H226.84L225.281 192.249V195.379H224.124V190.057H225.135L227.133 193.37L229.106 190.057H230.117V195.391L228.911 195.379Z" fill="#263238"/>
<path d="M235.244 193.711H232.139C232.202 193.975 232.363 194.207 232.588 194.36C232.813 194.513 233.087 194.577 233.357 194.539C233.547 194.546 233.738 194.514 233.916 194.445C234.094 194.376 234.256 194.271 234.392 194.137L235.025 194.831C234.807 195.057 234.543 195.232 234.251 195.346C233.959 195.459 233.645 195.508 233.332 195.489C233.037 195.518 232.74 195.485 232.459 195.392C232.177 195.299 231.918 195.149 231.698 194.951C231.478 194.753 231.302 194.511 231.181 194.241C231.059 193.97 230.996 193.678 230.994 193.382C230.99 193.097 231.044 192.815 231.154 192.552C231.263 192.29 231.424 192.052 231.628 191.853C231.832 191.655 232.074 191.5 232.34 191.399C232.606 191.297 232.89 191.251 233.174 191.262C233.458 191.249 233.742 191.294 234.007 191.396C234.273 191.498 234.514 191.655 234.716 191.855C234.918 192.056 235.075 192.296 235.179 192.561C235.282 192.826 235.33 193.11 235.318 193.394C235.269 193.443 235.244 193.564 235.244 193.711ZM232.126 193.016H234.148C234.111 192.775 233.988 192.555 233.803 192.397C233.617 192.238 233.381 192.151 233.137 192.151C232.893 192.151 232.657 192.238 232.472 192.397C232.286 192.555 232.164 192.775 232.126 193.016Z" fill="#263238"/>
<path d="M235.659 195.002L236.048 194.149C236.482 194.4 236.973 194.534 237.474 194.539C238.034 194.539 238.229 194.393 238.229 194.174C238.229 193.504 235.793 194.174 235.793 192.541C235.793 191.774 236.499 191.214 237.693 191.214C238.239 191.205 238.778 191.33 239.264 191.579L238.874 192.42C238.502 192.213 238.082 192.108 237.656 192.115C237.12 192.115 236.889 192.286 236.889 192.505C236.889 193.199 239.325 192.505 239.325 194.137C239.325 194.904 238.606 195.44 237.388 195.44C236.784 195.439 236.19 195.289 235.659 195.002Z" fill="#263238"/>
<path d="M239.702 195.002L240.092 194.149C240.526 194.4 241.017 194.534 241.517 194.539C242.077 194.539 242.272 194.393 242.272 194.174C242.272 193.504 239.836 194.174 239.836 192.541C239.836 191.774 240.543 191.214 241.736 191.214C242.282 191.205 242.822 191.33 243.308 191.579L242.918 192.42C242.545 192.213 242.126 192.108 241.7 192.115C241.164 192.115 240.933 192.286 240.933 192.505C240.933 193.199 243.369 192.505 243.369 194.137C243.369 194.904 242.65 195.44 241.432 195.44C240.828 195.439 240.234 195.289 239.702 195.002Z" fill="#263238"/>
<path d="M247.766 193.041V195.379H246.657V194.929C246.523 195.123 246.339 195.278 246.125 195.379C245.911 195.479 245.675 195.522 245.439 195.501C244.489 195.501 243.917 194.965 243.917 194.283C243.917 193.601 244.428 193.065 245.671 193.065H246.621C246.621 192.553 246.316 192.261 245.671 192.261C245.234 192.251 244.807 192.384 244.453 192.639L244.026 191.81C244.553 191.473 245.167 191.3 245.792 191.311C247.047 191.275 247.766 191.798 247.766 193.041ZM246.548 194.088V193.711H245.732C245.171 193.711 245.001 193.918 245.001 194.198C245.001 194.478 245.244 194.685 245.671 194.685C245.868 194.701 246.064 194.651 246.23 194.543C246.395 194.435 246.52 194.275 246.584 194.088H246.548Z" fill="#263238"/>
<path d="M253.113 191.275V194.685C253.113 196.208 252.297 196.902 250.811 196.902C250.098 196.932 249.395 196.736 248.801 196.342L249.276 195.489C249.697 195.794 250.205 195.956 250.725 195.952C251.566 195.952 251.943 195.574 251.943 194.831V194.661C251.774 194.833 251.571 194.967 251.346 195.055C251.122 195.143 250.881 195.183 250.64 195.172C250.114 195.172 249.609 194.963 249.236 194.591C248.864 194.218 248.655 193.714 248.655 193.187C248.655 192.66 248.864 192.155 249.236 191.783C249.609 191.411 250.114 191.202 250.64 191.202C250.898 191.188 251.156 191.234 251.393 191.338C251.63 191.442 251.839 191.599 252.004 191.798V191.275H253.113ZM251.895 193.187C251.909 192.97 251.858 192.753 251.748 192.565C251.637 192.377 251.473 192.227 251.276 192.134C251.079 192.041 250.858 192.009 250.643 192.043C250.428 192.078 250.228 192.176 250.069 192.325C249.911 192.475 249.801 192.669 249.754 192.882C249.708 193.094 249.726 193.316 249.807 193.519C249.889 193.721 250.029 193.894 250.21 194.015C250.391 194.136 250.605 194.2 250.823 194.198C250.964 194.215 251.107 194.202 251.243 194.16C251.378 194.118 251.503 194.047 251.609 193.952C251.715 193.858 251.8 193.742 251.858 193.612C251.915 193.482 251.944 193.341 251.943 193.199L251.895 193.187Z" fill="#263238"/>
<path d="M258.216 193.711H255.11C255.174 193.975 255.334 194.207 255.559 194.36C255.784 194.513 256.058 194.577 256.328 194.539C256.519 194.546 256.709 194.514 256.887 194.445C257.065 194.376 257.227 194.271 257.363 194.137L257.997 194.831C257.778 195.056 257.514 195.231 257.222 195.345C256.93 195.458 256.617 195.507 256.304 195.489C256.009 195.52 255.71 195.488 255.428 195.396C255.146 195.304 254.886 195.154 254.666 194.955C254.445 194.757 254.269 194.514 254.148 194.243C254.028 193.972 253.965 193.679 253.965 193.382C253.964 193.105 254.017 192.83 254.122 192.573C254.228 192.317 254.383 192.084 254.579 191.888C254.775 191.692 255.008 191.537 255.264 191.432C255.52 191.326 255.795 191.273 256.072 191.275C256.356 191.261 256.64 191.306 256.906 191.408C257.171 191.511 257.413 191.667 257.614 191.867C257.816 192.068 257.974 192.308 258.077 192.573C258.181 192.838 258.228 193.122 258.216 193.406C258.24 193.443 258.216 193.564 258.216 193.711ZM255.098 193.016H257.12C257.082 192.775 256.96 192.555 256.774 192.397C256.589 192.238 256.353 192.151 256.109 192.151C255.865 192.151 255.629 192.238 255.443 192.397C255.258 192.555 255.135 192.775 255.098 193.016Z" fill="#263238"/>
<path d="M445.033 317.947H383.865C381.916 317.948 379.985 317.566 378.184 316.821C376.383 316.076 374.746 314.984 373.367 313.606C371.988 312.228 370.894 310.592 370.148 308.792C369.402 306.991 369.018 305.061 369.018 303.112C369.018 301.162 369.402 299.232 370.148 297.432C370.894 295.631 371.988 293.995 373.367 292.617C374.746 291.239 376.383 290.147 378.184 289.402C379.985 288.657 381.916 288.275 383.865 288.276H445.033C448.968 288.276 452.741 289.839 455.523 292.621C458.305 295.404 459.868 299.177 459.868 303.112C459.868 307.046 458.305 310.82 455.523 313.602C452.741 316.384 448.968 317.947 445.033 317.947Z" fill="#FCBA04"/>
<path d="M401.014 305.413L401.587 304.195C402.286 304.676 403.114 304.935 403.962 304.938C404.949 304.938 405.351 304.61 405.351 304.171C405.351 302.819 401.161 303.745 401.161 301.065C401.161 299.847 402.147 298.812 404.206 298.812C405.081 298.795 405.945 299.018 406.703 299.457L406.191 300.675C405.585 300.317 404.897 300.12 404.193 300.103C403.195 300.103 402.817 300.481 402.817 300.931C402.817 302.259 407.019 301.345 407.019 304.001C407.019 305.219 406.02 306.23 403.95 306.23C402.911 306.264 401.886 305.979 401.014 305.413Z" fill="white"/>
<path d="M413.462 303.806H409.272C409.356 304.152 409.563 304.455 409.855 304.659C410.146 304.863 410.502 304.954 410.856 304.914C411.112 304.926 411.367 304.884 411.606 304.792C411.845 304.7 412.063 304.559 412.244 304.378L413.109 305.304C412.672 305.719 412.129 306.005 411.54 306.129C410.95 306.254 410.338 306.212 409.77 306.008C409.203 305.805 408.704 305.448 408.328 304.977C407.952 304.507 407.714 303.941 407.64 303.343C407.636 302.957 407.712 302.575 407.861 302.219C408.011 301.864 408.232 301.542 408.51 301.275C408.788 301.008 409.119 300.801 409.48 300.667C409.842 300.532 410.227 300.473 410.612 300.493C410.995 300.474 411.378 300.535 411.736 300.672C412.094 300.81 412.419 301.021 412.691 301.292C412.963 301.562 413.175 301.887 413.314 302.244C413.453 302.602 413.516 302.984 413.499 303.367C413.499 303.489 413.474 303.672 413.462 303.806ZM409.248 302.868H411.976C411.916 302.55 411.747 302.264 411.498 302.057C411.249 301.851 410.935 301.738 410.612 301.738C410.289 301.738 409.976 301.851 409.727 302.057C409.478 302.264 409.308 302.55 409.248 302.868Z" fill="white"/>
<path d="M420.246 302.941V306.12H418.626V303.197C418.626 302.295 418.225 301.881 417.506 301.881C416.787 301.881 416.178 302.356 416.178 303.379V306.12H414.571V300.578H416.105V301.223C416.344 300.98 416.63 300.789 416.947 300.663C417.264 300.537 417.604 300.479 417.944 300.493C418.265 300.472 418.586 300.523 418.884 300.641C419.183 300.759 419.452 300.941 419.672 301.175C419.892 301.409 420.057 301.688 420.156 301.994C420.256 302.299 420.287 302.622 420.246 302.941Z" fill="white"/>
<path d="M427.408 298.459V306.108H425.874V305.474C425.66 305.719 425.393 305.911 425.093 306.035C424.793 306.16 424.468 306.214 424.144 306.193C423.419 306.146 422.739 305.824 422.242 305.294C421.745 304.763 421.469 304.064 421.469 303.337C421.469 302.61 421.745 301.91 422.242 301.38C422.739 300.85 423.419 300.528 424.144 300.481C424.452 300.466 424.76 300.518 425.046 300.634C425.332 300.749 425.589 300.926 425.801 301.151V298.459H427.408ZM425.837 303.331C425.814 303.055 425.71 302.792 425.539 302.574C425.368 302.356 425.138 302.192 424.876 302.103C424.613 302.014 424.331 302.003 424.062 302.072C423.794 302.141 423.552 302.287 423.365 302.491C423.178 302.696 423.055 302.95 423.011 303.224C422.966 303.497 423.002 303.778 423.115 304.031C423.227 304.284 423.411 304.499 423.643 304.649C423.876 304.8 424.147 304.879 424.424 304.878C424.622 304.878 424.817 304.838 424.998 304.759C425.179 304.68 425.341 304.563 425.474 304.418C425.607 304.272 425.708 304.1 425.771 303.913C425.833 303.725 425.856 303.527 425.837 303.331Z" fill="white"/>
<path d="M221.761 42.1792C220.83 42.0883 219.895 42.0476 218.96 42.0574C216.414 42.1828 213.983 43.1561 212.054 44.8223C210.64 46.0446 209.554 47.6006 208.895 49.3491C208.236 51.0975 208.024 52.983 208.278 54.8343C208.42 55.8998 208.72 56.9383 209.167 57.9158C209.628 58.9354 210.24 59.8798 210.982 60.7172C212.548 62.4926 214.64 63.7216 216.954 64.2255C219.267 64.7293 221.681 64.4817 223.844 63.5186C224.87 63.0733 225.82 62.4691 226.658 61.7282C227.477 61.0291 228.184 60.2074 228.752 59.2921C229.755 57.7159 230.347 55.9139 230.475 54.0502C230.602 52.1866 230.261 50.3207 229.483 48.6225C228.432 46.3127 226.646 44.4155 224.404 43.2267C223.559 42.8309 222.693 42.4812 221.81 42.1792C222.751 42.3029 223.665 42.5828 224.514 43.0075C226.894 44.1319 228.809 46.0477 229.934 48.4276C230.721 50.0676 231.109 51.8706 231.067 53.6894C231.013 55.7875 230.394 57.8324 229.276 59.6088C228.046 61.5774 226.256 63.1339 224.136 64.0789C221.855 65.1112 219.302 65.3808 216.856 64.8476C214.41 64.3145 212.2 63.007 210.556 61.1192C209.737 60.2475 209.066 59.2477 208.57 58.1594C208.098 57.1341 207.789 56.0407 207.657 54.9195C207.395 52.9786 207.63 51.0031 208.339 49.1777C209.049 47.3522 210.209 45.7364 211.713 44.4813C213.73 42.7902 216.267 41.8441 218.899 41.8017C219.867 41.7716 220.834 41.8991 221.761 42.1792Z" fill="#FCBA04"/>
<path d="M215.343 42.6787C217.361 45.8574 219.199 49.1472 220.848 52.5323C222.667 55.8171 224.294 59.2048 225.72 62.6783C223.717 59.4924 221.884 56.2033 220.227 52.8247C218.407 49.5384 216.776 46.1509 215.343 42.6787Z" fill="#FCBA04"/>
<path d="M217.669 42.0332C219.633 45.1046 221.414 48.2891 223.004 51.5701C224.783 54.7539 226.381 58.0355 227.79 61.3994C225.825 58.3267 224.039 55.1423 222.443 51.8625C220.665 48.6802 219.071 45.3984 217.669 42.0332Z" fill="#FCBA04"/>
<path d="M220.36 42.0696C222.112 44.7489 223.687 47.54 225.074 50.4251C226.657 53.2099 228.049 56.0991 229.24 59.0729C227.487 56.3916 225.909 53.6007 224.514 50.7174C222.943 47.9282 221.555 45.0395 220.36 42.0696Z" fill="#FCBA04"/>
<path d="M223.259 42.4961C224.717 44.6302 226.008 46.874 227.12 49.2073C228.409 51.4467 229.509 53.7892 230.409 56.2108C228.951 54.0766 227.66 51.8329 226.548 49.4996C225.26 47.2602 224.16 44.9176 223.259 42.4961Z" fill="#FCBA04"/>
<path d="M213.247 44.0308C215.268 47.2081 217.106 50.498 218.753 53.8844C220.593 57.1692 222.244 60.5567 223.698 64.0303C221.676 60.8535 219.838 57.5636 218.192 54.1767C216.358 50.8887 214.707 47.5015 213.247 44.0308Z" fill="#FCBA04"/>
<path d="M211.165 45.3826C213.185 48.5561 215.023 51.8419 216.67 55.224C218.48 58.5132 220.107 61.9004 221.542 65.3699C219.52 62.1932 217.682 58.9032 216.037 55.5163C214.228 52.2305 212.601 48.8474 211.165 45.3826Z" fill="#FCBA04"/>
<path d="M209.484 47.5508C211.267 50.2831 212.867 53.1314 214.271 56.0768C215.87 58.9086 217.282 61.8421 218.497 64.8586C216.716 62.1249 215.117 59.2767 213.71 56.3326C212.115 53.4988 210.703 50.5655 209.484 47.5508Z" fill="#FCBA04"/>
<path d="M208.241 50.4739C209.705 52.5829 210.989 54.8116 212.078 57.1363C213.356 59.3627 214.451 61.6885 215.355 64.0911C213.894 61.98 212.611 59.7516 211.518 57.4287C210.231 55.2072 209.135 52.8806 208.241 50.4739Z" fill="#FCBA04"/>
<path d="M311.43 303.051C311.357 303.051 310.943 302.161 309.737 300.809C308.026 298.923 305.732 297.667 303.221 297.241C301.379 296.915 299.485 297.059 297.714 297.659C295.943 298.26 294.351 299.297 293.087 300.676C291.591 302.295 290.608 304.321 290.261 306.498C289.88 308.833 290.256 311.229 291.334 313.335C292.413 315.441 294.137 317.147 296.254 318.203C297.251 318.72 298.324 319.073 299.433 319.25C300.487 319.432 301.563 319.457 302.624 319.323C304.175 319.126 305.667 318.61 307.008 317.807C308.349 317.004 309.509 315.932 310.414 314.658C311.32 313.384 311.951 311.936 312.269 310.406C312.586 308.875 312.583 307.296 312.259 305.767C311.869 304.013 311.357 303.124 311.43 303.087C311.928 303.9 312.29 304.789 312.502 305.718C313.142 308.27 312.875 310.965 311.747 313.343C310.979 314.993 309.831 316.437 308.397 317.557C306.751 318.868 304.782 319.709 302.697 319.993C301.579 320.163 300.442 320.163 299.323 319.993C298.157 319.808 297.027 319.443 295.974 318.909C293.733 317.797 291.908 315.993 290.77 313.765C289.632 311.537 289.24 309.002 289.652 306.534C289.831 305.367 290.197 304.235 290.736 303.185C291.234 302.171 291.883 301.238 292.661 300.42C293.996 298.99 295.671 297.921 297.53 297.312C299.389 296.703 301.372 296.574 303.294 296.936C305.887 297.417 308.233 298.781 309.932 300.797C310.546 301.466 311.052 302.226 311.43 303.051Z" fill="#FCBA04"/>
<path d="M306.96 298.459C305.778 302.036 304.4 305.545 302.831 308.97C301.456 312.47 299.887 315.889 298.13 319.213C299.308 315.641 300.682 312.136 302.247 308.714C303.627 305.211 305.201 301.787 306.96 298.459Z" fill="#FCBA04"/>
<path d="M308.946 299.799C307.817 303.267 306.487 306.667 304.963 309.981C303.633 313.375 302.108 316.69 300.396 319.908C301.522 316.442 302.852 313.046 304.378 309.737C305.713 306.341 307.238 303.023 308.946 299.799Z" fill="#FCBA04"/>
<path d="M310.627 301.906C309.665 304.962 308.506 307.953 307.155 310.858C306.007 313.846 304.656 316.751 303.112 319.555C304.068 316.497 305.228 313.506 306.583 310.602C307.731 307.615 309.082 304.709 310.627 301.906Z" fill="#FCBA04"/>
<path d="M312.1 304.415C311.39 306.901 310.477 309.324 309.372 311.662C308.453 314.074 307.341 316.408 306.047 318.641C306.763 316.159 307.679 313.739 308.787 311.406C309.705 308.992 310.812 306.654 312.1 304.415Z" fill="#FCBA04"/>
<path d="M304.597 297.667C303.411 301.239 302.033 304.743 300.468 308.166C299.089 311.668 297.519 315.091 295.767 318.422C296.941 314.844 298.316 311.334 299.884 307.91C301.253 304.407 302.827 300.986 304.597 297.667Z" fill="#FCBA04"/>
<path d="M302.222 296.9C301.053 300.476 299.678 303.981 298.106 307.399C296.732 310.903 295.162 314.327 293.404 317.654C294.578 314.08 295.952 310.575 297.521 307.155C298.894 303.651 300.464 300.227 302.222 296.9Z" fill="#FCBA04"/>
<path d="M299.518 296.948C298.544 300.05 297.369 303.086 295.998 306.035C294.822 309.063 293.451 312.013 291.894 314.865C292.87 311.76 294.046 308.721 295.414 305.767C296.59 302.741 297.961 299.796 299.518 296.948Z" fill="#FCBA04"/>
<path d="M296.437 297.874C295.725 300.338 294.817 302.741 293.721 305.06C292.823 307.465 291.719 309.788 290.42 312.003C291.132 309.539 292.04 307.136 293.136 304.817C294.04 302.414 295.144 300.092 296.437 297.874Z" fill="#FCBA04"/>
<path d="M480.282 71.1557C480.158 69.4454 479.901 67.7472 479.515 66.0766C479.015 64.1309 478.227 62.2711 477.176 60.5591C474.698 56.4378 470.864 53.3074 466.33 51.705C461.796 50.1026 456.846 50.1282 452.329 51.7773C450.456 52.4398 448.697 53.3889 447.116 54.5909C446.292 55.1985 445.51 55.8618 444.777 56.5762C444.047 57.34 443.372 58.154 442.755 59.0122C440.152 62.5396 438.747 66.8082 438.747 71.1922C438.747 75.5762 440.152 79.8449 442.755 83.3722C443.372 84.2304 444.047 85.0444 444.777 85.8082C445.51 86.5226 446.292 87.186 447.116 87.7936C448.697 88.9955 450.456 89.9447 452.329 90.6071C456.846 92.2563 461.796 92.2818 466.33 90.6794C470.864 89.077 474.698 85.9466 477.176 81.8254C478.227 80.1134 479.015 78.2535 479.515 76.3078C479.901 74.6372 480.158 72.9391 480.282 71.2288C480.296 71.342 480.296 71.4565 480.282 71.5698C480.282 71.8256 480.282 72.1544 480.282 72.5686C480.284 73.1114 480.239 73.6534 480.148 74.1885C480.07 74.9244 479.935 75.6533 479.746 76.3687C479.283 78.3532 478.519 80.2551 477.48 82.0081C475.959 84.5936 473.904 86.8257 471.454 88.5561C469.003 90.2865 466.212 91.4756 463.266 92.0444C459.543 92.7474 455.699 92.4404 452.134 91.1552C450.203 90.478 448.387 89.5085 446.75 88.2808C445.894 87.6537 445.08 86.9701 444.314 86.2345C443.563 85.4727 442.867 84.6587 442.232 83.7985C439.543 80.1662 438.091 75.7663 438.091 71.247C438.091 66.7277 439.543 62.3279 442.232 58.6955C442.874 57.8404 443.569 57.0268 444.314 56.2595C445.08 55.5239 445.894 54.8403 446.75 54.2133C448.39 52.935 450.218 51.92 452.17 51.2048C455.5 49.994 459.082 49.645 462.583 50.1901C466.084 50.7353 469.39 52.157 472.194 54.3229C474.349 55.9863 476.157 58.0552 477.517 60.4129C478.556 62.1659 479.32 64.0678 479.782 66.0523C479.973 66.7756 480.108 67.5127 480.184 68.2568C480.276 68.7919 480.321 69.3339 480.318 69.8768C480.318 70.2909 480.318 70.6198 480.318 70.8755C480.316 70.9699 480.303 71.0637 480.282 71.1557Z" fill="#FCBA04"/>
<path d="M476.859 59.9013C476.969 60.0353 469.978 66.0644 461.232 73.2993C452.487 80.5342 445.313 86.5268 445.203 86.3319C445.094 86.137 452.085 80.2419 460.83 72.9339C469.576 65.6259 476.75 59.7308 476.859 59.9013Z" fill="#FCBA04"/>
<path d="M478.966 63.7987C479.076 63.9327 472.292 69.7669 463.827 76.8435C455.362 83.9201 448.395 89.5473 448.285 89.4133C448.175 89.2793 454.947 83.4329 463.425 76.3563C471.902 69.2797 478.832 63.6648 478.966 63.7987Z" fill="#FCBA04"/>
<path d="M479.929 68.6099C480.05 68.7438 474.107 73.8838 466.677 80.0956C459.247 86.3074 453.12 91.2281 453.011 91.0576C452.901 90.8871 458.833 85.7837 466.263 79.5719C473.692 73.3601 479.819 68.4759 479.929 68.6099Z" fill="#FCBA04"/>
<path d="M480.282 73.9569C480.391 74.0909 475.629 78.2565 469.636 83.2624C463.644 88.2684 458.674 92.2147 458.577 92.0808C458.479 91.9468 463.23 87.7812 469.234 82.7752C475.239 77.7693 480.184 73.8229 480.282 73.9569Z" fill="#FCBA04"/>
<path d="M473.644 56.6856C473.765 56.8196 466.762 62.8487 458.029 70.0837C449.296 77.3186 442.097 83.2015 441.988 83.0675C441.878 82.9336 448.87 76.9045 457.615 69.5965C466.36 62.2884 473.534 56.5517 473.644 56.6856Z" fill="#FCBA04"/>
<path d="M470.44 53.47C470.55 53.604 463.546 59.6331 454.813 66.8681C446.08 74.103 438.894 80.0468 438.772 79.9128C438.651 79.7789 445.654 73.7498 454.399 66.4418C463.144 59.1338 470.319 53.3361 470.44 53.47Z" fill="#FCBA04"/>
<path d="M465.97 51.3022C466.08 51.4362 460.063 56.6492 452.511 62.9584C444.96 69.2677 438.772 74.2615 438.65 74.1275C438.529 73.9935 444.558 68.7683 452.109 62.4712C459.661 56.1742 465.861 51.2048 465.97 51.3022Z" fill="#FCBA04"/>
<path d="M460.197 50.2304C460.307 50.3644 455.569 54.5056 449.625 59.475C443.681 64.4444 438.748 68.3664 438.663 68.2324C438.578 68.0984 443.279 63.9572 449.235 58.9878C455.191 54.0184 460.087 50.0964 460.197 50.2304Z" fill="#FCBA04"/>
<path d="M437.018 43.8724C439.171 43.8724 440.916 42.1273 440.916 39.9747C440.916 37.8222 439.171 36.0771 437.018 36.0771C434.866 36.0771 433.121 37.8222 433.121 39.9747C433.121 42.1273 434.866 43.8724 437.018 43.8724Z" fill="#FCBA04"/>
<path d="M328.543 296.303C328.546 297.074 328.319 297.829 327.892 298.472C327.465 299.114 326.858 299.616 326.146 299.912C325.434 300.209 324.65 300.288 323.893 300.139C323.136 299.99 322.44 299.62 321.894 299.075C321.348 298.531 320.975 297.836 320.824 297.08C320.672 296.324 320.749 295.539 321.044 294.826C321.338 294.113 321.838 293.504 322.479 293.075C323.12 292.646 323.874 292.417 324.646 292.417C325.677 292.417 326.667 292.826 327.397 293.555C328.128 294.283 328.54 295.271 328.543 296.303Z" fill="#FCBA04"/>
<path d="M144.211 90.1807C143.723 87.1048 142.236 84.2752 139.98 82.1288C137.723 79.9824 134.823 78.6387 131.726 78.3052C130.086 78.3415 128.448 78.1613 126.854 77.7693C125.652 77.191 124.491 76.5276 123.383 75.7839C121.466 74.819 119.277 74.5345 117.177 74.9771C115.077 75.4198 113.189 76.5633 111.824 78.2199C109.388 81.3989 108.329 77.0019 102.47 80.461C97.5981 83.3477 100.156 87.3549 100.156 87.3549C97.6422 87.3218 95.1946 88.1603 93.2295 89.728C91.2643 91.2958 89.9028 93.4958 89.3766 95.954C88.8041 99.0843 89.3766 102.884 86.9406 104.931C85.7226 105.917 84.1148 106.149 82.8846 107.135C80.6192 108.889 80.5461 112.275 81.0576 115.089C81.5692 117.902 82.4462 120.886 81.3987 123.615C79.6813 127.987 73.4573 129.705 72.69 134.358C72.3246 136.55 73.2381 139.23 71.7156 140.789C71.0392 141.369 70.2634 141.823 69.4257 142.128C67.7925 142.928 66.4109 144.161 65.4324 145.694C64.4539 147.227 63.9163 148.999 63.8786 150.817C63.8409 152.635 64.3044 154.428 65.2184 156C66.1325 157.572 67.4617 158.862 69.0603 159.729C69.9373 160.204 70.997 160.654 71.3258 161.604C71.6547 162.554 71.0091 163.76 70.5098 164.759C69.5824 166.614 69.2859 168.721 69.6652 170.76C70.0446 172.799 71.0791 174.658 72.6116 176.056C74.144 177.453 76.0907 178.312 78.156 178.502C80.2212 178.693 82.292 178.203 84.0539 177.109C85.9877 180.452 89.1457 182.911 92.8601 183.967C94.5428 184.522 96.3518 184.568 98.0609 184.101C99.3952 183.629 100.615 182.882 101.642 181.908C106.709 177.487 113.822 170.739 114.285 164.028" fill="#263238"/>
<path d="M97.6104 114.638C96.8345 114.794 96.0354 114.794 95.2596 114.638C93.369 114.325 91.5642 113.622 89.9601 112.573C88.356 111.525 86.9876 110.154 85.9419 108.548C85.4708 107.917 85.1349 107.195 84.9553 106.429C85.4439 107.021 85.8955 107.644 86.3073 108.292C87.4291 109.726 88.7837 110.961 90.3145 111.946C91.8608 112.932 93.561 113.653 95.3449 114.078C96.1114 114.215 96.8682 114.402 97.6104 114.638Z" fill="#455A64"/>
<path d="M101.008 99.2305C100.615 99.8402 100.096 100.359 99.4859 100.753C96.6496 102.853 93.1036 103.758 89.608 103.274C88.8823 103.221 88.1764 103.013 87.5374 102.665C89.9045 102.955 92.303 102.856 94.6383 102.373C96.9216 101.687 99.0745 100.625 101.008 99.2305Z" fill="#455A64"/>
<path d="M76.1125 175.441C76.1125 175.441 76.0394 175.441 75.9054 175.441C75.6991 175.391 75.4958 175.33 75.2964 175.258C74.5362 174.969 73.8285 174.558 73.2014 174.04C72.1637 173.263 71.3281 172.248 70.7654 171.08C70.0331 169.523 69.8279 167.77 70.1808 166.086C70.3727 165.111 70.74 164.178 71.2648 163.334C71.8518 162.418 72.5746 161.596 73.4085 160.898C74.2626 160.199 75.0095 159.378 75.6253 158.462C75.9047 157.986 76.0601 157.448 76.0772 156.897C76.0942 156.346 75.9723 155.799 75.7227 155.307C75.1128 154.24 74.3812 153.246 73.5425 152.347C73.1154 151.839 72.7362 151.293 72.4097 150.715C72.0825 150.103 71.8601 149.44 71.752 148.754C71.5559 147.317 71.8146 145.855 72.4917 144.573C73.1689 143.291 74.2306 142.253 75.5278 141.605C76.8672 141.157 78.2455 140.835 79.6447 140.642C80.2738 140.517 80.8706 140.264 81.3986 139.899C81.8859 139.535 82.2409 139.022 82.4095 138.438C82.6746 137.208 82.5335 135.926 82.0076 134.784C81.5326 133.627 80.8748 132.53 80.4485 131.361C79.9468 130.209 79.8565 128.919 80.1928 127.707C80.5911 126.589 81.3169 125.617 82.2755 124.918C83.9831 123.778 85.8932 122.976 87.9027 122.555C89.4984 122.177 91.0046 121.49 92.3362 120.533C93.2765 119.738 93.9274 118.655 94.1876 117.452C94.3712 116.693 94.294 115.895 93.9684 115.186C93.7369 114.699 93.5177 114.504 93.5542 114.48C93.7793 114.652 93.9625 114.872 94.0902 115.125C94.4737 115.85 94.5942 116.685 94.4312 117.488C94.2092 118.774 93.5511 119.944 92.5676 120.801C91.2179 121.83 89.6718 122.572 88.0245 122.981C86.0863 123.418 84.2476 124.215 82.6044 125.332C81.7324 125.968 81.0774 126.857 80.7287 127.878C80.4299 128.976 80.5247 130.143 80.9967 131.179C81.4108 132.299 82.0563 133.359 82.5679 134.577C83.1432 135.834 83.297 137.244 83.0064 138.596C82.8024 139.308 82.3755 139.936 81.7884 140.387C81.1927 140.808 80.5169 141.102 79.803 141.251C78.4463 141.434 77.1091 141.74 75.808 142.165C74.6351 142.756 73.6753 143.697 73.0619 144.858C72.4486 146.019 72.2121 147.343 72.3854 148.645C72.4797 149.26 72.673 149.857 72.9579 150.411C73.2672 150.958 73.626 151.476 74.0297 151.958C74.8963 152.894 75.6448 153.933 76.2586 155.051C76.5381 155.625 76.6711 156.259 76.6456 156.897C76.6201 157.534 76.4369 158.156 76.1125 158.705C75.4684 159.662 74.6794 160.513 73.7739 161.227C72.971 161.869 72.2689 162.629 71.6911 163.48C71.1838 164.273 70.8248 165.152 70.6315 166.074C70.2691 167.666 70.4314 169.332 71.0943 170.824C71.6028 171.954 72.3656 172.95 73.3232 173.735C74.1546 174.451 75.0966 175.027 76.1125 175.441Z" fill="#455A64"/>
<path d="M202.517 480.306H71.3259V487.273H202.517V480.306Z" fill="#E0E0E0"/>
<path d="M202.48 487.249C202.48 487.249 202.48 487.09 202.48 486.81C202.48 486.53 202.48 486.079 202.48 485.519C202.48 484.301 202.48 482.62 202.419 480.282L202.517 480.379C185.465 480.501 133.151 480.598 71.3258 480.598L71.6424 480.282V487.249L71.3258 486.932L164.235 487.066L192.249 487.163H199.861H201.847H202.541H201.895H199.947H192.407L164.491 487.261L71.3501 487.395H71.0334V479.941H71.3501C133.176 479.941 185.525 480.026 202.541 480.16H202.638V480.257C202.638 482.62 202.638 484.362 202.577 485.543C202.577 486.104 202.577 486.518 202.577 486.822C202.557 486.967 202.525 487.11 202.48 487.249Z" fill="#263238"/>
<path d="M85.0647 359.553L57.3674 546.663H66.5999L91.6663 361.989V359.553H85.0647Z" fill="#E0E0E0"/>
<path d="M85.0649 359.553C85.0649 359.553 85.5643 359.553 86.6483 359.553H91.6665H91.7517V359.639C91.7517 360.37 91.7517 361.186 91.7517 362.075C88.7555 385.107 78.8166 459.064 66.9045 546.772V547.052H57.0022V546.687C64.8461 494.557 71.7887 447.724 76.8191 413.925C79.3525 397.068 81.3987 383.475 82.8238 374.06C83.5302 369.383 84.0418 365.753 84.4681 363.268L84.8944 360.479C85.004 359.858 85.0649 359.553 85.0649 359.553C85.0649 359.553 85.0649 359.882 84.9431 360.528C84.8213 361.173 84.7239 362.136 84.5412 363.366C84.188 365.802 83.6642 369.456 82.9821 374.23C81.618 383.658 79.6326 397.299 77.1723 414.193C72.2028 447.944 65.3333 494.678 57.6843 546.711L57.3676 546.346H66.6122L66.2955 546.614C78.2441 458.906 88.3292 384.937 91.6421 361.977C91.6421 361.088 91.6421 360.272 91.6421 359.541L91.7152 359.614H86.7458L85.0649 359.553Z" fill="#263238"/>
<path d="M188.741 359.553L217.023 546.663H207.778L182.139 361.989V359.553H188.741Z" fill="#E0E0E0"/>
<path d="M188.741 359.554H187.109H182.14L182.213 359.481C182.213 360.211 182.213 361.027 182.213 361.917C185.538 384.912 195.903 458.833 208.083 546.553L207.778 546.285H217.011L216.694 546.651C208.887 494.63 201.859 447.883 196.792 414.132C194.283 397.239 192.261 383.609 190.848 374.17C190.166 369.456 189.63 365.802 189.253 363.305C189.082 362.087 188.948 361.125 188.851 360.467C188.753 359.809 188.729 359.493 188.729 359.493C188.729 359.493 188.79 359.797 188.899 360.418C189.009 361.04 189.143 362.002 189.338 363.208C189.728 365.644 190.288 369.298 191.019 373.999C192.468 383.402 194.551 397.007 197.109 413.864C202.249 447.664 209.362 494.459 217.291 546.553V546.919H207.413V546.638C195.233 458.942 185.051 384.973 181.981 361.941C181.981 361.052 181.981 360.236 181.981 359.505V359.42H182.066H187.072C188.242 359.529 188.741 359.554 188.741 359.554Z" fill="#263238"/>
<path d="M137.853 359.553H129.96V546.663H137.853V359.553Z" fill="#E0E0E0"/>
<path d="M137.853 546.663C137.853 546.663 137.853 546.322 137.853 545.676C137.853 545.031 137.853 544.081 137.853 542.85C137.853 540.414 137.853 536.687 137.853 531.986C137.853 522.546 137.792 508.917 137.756 492.035C137.756 458.285 137.67 411.55 137.622 359.554L137.938 359.87H130.046L130.362 359.554C130.362 449.137 130.265 524.593 130.131 546.663L130.046 546.577H136.002H137.451H137.938H137.488H136.05H130.046H129.96V546.492C129.826 524.422 129.729 448.967 129.729 359.383V359.066H138.255V359.383C138.255 411.477 138.158 458.285 138.133 492.145C138.133 509.002 138.048 522.595 138.036 532.022C138.036 536.699 138.036 540.329 138.036 542.814C138.036 544.032 138.036 544.958 138.036 545.603C138.036 546.249 137.853 546.663 137.853 546.663Z" fill="#263238"/>
<path d="M190.312 347.045H82.0198V361.113H190.312V347.045Z" fill="#455A64"/>
<path d="M115.089 347.447C113.861 348.678 112.537 349.81 111.13 350.833C109.613 351.929 108.026 352.926 106.38 353.817C102.341 355.99 97.9767 357.495 93.4569 358.275C91.6125 358.592 89.7488 358.783 87.8785 358.847C86.1589 358.92 84.4363 358.859 82.7263 358.664H83.1161H84.1514C85.0283 358.664 86.3194 358.664 87.9028 358.664C89.7615 358.576 91.6126 358.369 93.4447 358.043C95.6868 357.626 97.8968 357.052 100.058 356.326C102.201 355.564 104.288 354.656 106.307 353.61C107.95 352.735 109.536 351.759 111.057 350.686C112.348 349.761 113.371 348.969 114.041 348.384L114.821 347.727L115.089 347.447Z" fill="#263238"/>
<path d="M130.618 356.691L130.35 356.594C130.18 356.521 129.924 356.387 129.583 356.253C128.576 355.871 127.531 355.601 126.465 355.449C124.786 355.213 123.079 355.275 121.422 355.632C119.245 356.096 117.214 357.083 115.503 358.506V358.336C119.42 359.292 123.445 359.73 127.476 359.639C129.776 359.583 132.068 359.351 134.333 358.945C135.519 358.812 136.673 358.474 137.743 357.946C138.258 357.648 138.65 357.178 138.852 356.618C139.026 356.047 139.005 355.434 138.791 354.877C138.514 354.225 138.081 353.651 137.532 353.205C136.982 352.76 136.331 352.455 135.636 352.319C134.271 352.008 132.881 351.816 131.483 351.746C128.836 351.559 126.178 351.612 123.542 351.905C116.02 352.728 108.822 355.406 102.592 359.7C101.703 360.297 101.045 360.82 100.594 361.161L99.9001 361.673C99.9001 361.673 100.119 361.478 100.57 361.125C101.021 360.772 101.642 360.236 102.531 359.627C105.012 357.859 107.674 356.361 110.472 355.157C114.616 353.346 119.01 352.171 123.505 351.673C126.162 351.378 128.84 351.317 131.507 351.49C132.922 351.568 134.327 351.764 135.709 352.075C136.42 352.265 137.092 352.578 137.695 353.001C138.302 353.456 138.763 354.078 139.022 354.791C139.248 355.409 139.248 356.086 139.022 356.704C138.81 357.321 138.376 357.838 137.804 358.153C136.709 358.7 135.525 359.05 134.309 359.188C132.028 359.596 129.719 359.824 127.403 359.87C123.354 359.963 119.31 359.512 115.381 358.531H115.198L115.344 358.409C117.106 356.96 119.198 355.969 121.434 355.522C123.106 355.173 124.826 355.127 126.513 355.388C127.588 355.548 128.639 355.838 129.644 356.253C130.241 356.509 130.618 356.691 130.618 356.691Z" fill="#263238"/>
<path d="M144.613 347.41C144.865 347.438 145.111 347.504 145.344 347.605C145.989 347.891 146.569 348.305 147.049 348.823C147.759 349.583 148.259 350.515 148.498 351.527C148.757 352.781 148.652 354.083 148.194 355.278C147.312 357.424 145.637 359.148 143.517 360.09C142.893 360.38 142.245 360.617 141.58 360.796L141.032 360.93C140.898 360.93 140.837 360.93 140.837 360.93C141.065 360.826 141.302 360.74 141.544 360.674C142.193 360.466 142.824 360.205 143.432 359.895C145.483 358.945 147.098 357.251 147.95 355.157C148.411 353.996 148.521 352.725 148.267 351.503C148.052 350.52 147.586 349.609 146.915 348.86C146.275 348.199 145.485 347.702 144.613 347.41Z" fill="#263238"/>
<path d="M161.567 347.349C160.746 347.694 159.952 348.102 159.192 348.567C157.397 349.737 155.853 351.253 154.649 353.025C153.458 354.808 152.43 356.696 151.58 358.664L150.776 360.443C150.581 360.857 150.471 361.088 150.459 361.088C150.503 360.853 150.577 360.623 150.678 360.406C150.849 359.968 151.093 359.346 151.409 358.591C152.218 356.586 153.234 354.672 154.442 352.879C155.662 351.079 157.247 349.556 159.095 348.409C159.66 348.073 160.255 347.791 160.873 347.568C161.041 347.507 161.212 347.454 161.385 347.41C161.494 347.349 161.567 347.337 161.567 347.349Z" fill="#263238"/>
<path d="M180.276 355.705L179.643 355.424C179.041 355.17 178.417 354.97 177.779 354.828C175.424 354.285 172.954 354.56 170.776 355.607C170.424 355.745 170.119 355.982 169.899 356.289C169.8 356.445 169.757 356.63 169.777 356.814C169.797 356.997 169.878 357.169 170.008 357.3C170.687 357.813 171.461 358.186 172.286 358.396C174.086 359.037 175.961 359.447 177.864 359.614C179.959 359.795 182.069 359.693 184.137 359.31C185.224 359.168 186.256 358.749 187.133 358.092C187.549 357.726 187.839 357.238 187.962 356.698C188.084 356.158 188.033 355.593 187.815 355.083C187.377 354.04 186.552 353.206 185.513 352.757C184.504 352.292 183.446 351.941 182.359 351.71C180.307 351.243 178.199 351.07 176.098 351.198C172.523 351.415 169.058 352.516 166.013 354.401C163.967 355.669 162.137 357.257 160.593 359.103C160.045 359.773 159.655 360.321 159.375 360.674L158.973 361.234C159.419 360.466 159.924 359.733 160.483 359.042C162.023 357.117 163.866 355.455 165.94 354.121C169.005 352.2 172.501 351.074 176.11 350.845C178.235 350.707 180.368 350.875 182.444 351.344C183.548 351.576 184.623 351.931 185.647 352.404C186.738 352.879 187.608 353.75 188.083 354.84C188.305 355.405 188.36 356.022 188.242 356.618C188.102 357.204 187.782 357.732 187.328 358.128C186.422 358.833 185.347 359.287 184.21 359.444C182.118 359.833 179.984 359.935 177.864 359.748C175.947 359.569 174.057 359.16 172.237 358.53C171.811 358.384 171.397 358.214 171.019 358.055C170.602 357.906 170.223 357.664 169.911 357.349C169.76 357.187 169.667 356.98 169.645 356.76C169.623 356.54 169.673 356.319 169.789 356.131C170.034 355.804 170.362 355.547 170.739 355.388C172.959 354.345 175.47 354.096 177.852 354.681C178.708 354.895 179.526 355.24 180.276 355.705Z" fill="#263238"/>
<path d="M110.07 168.133C106.062 169.677 102.722 172.578 100.631 176.33C97.0865 182.602 98.0365 185.696 98.9622 189.411C99.8879 193.126 101.52 200.47 101.605 199.995C101.691 199.52 110.07 168.133 110.07 168.133Z" fill="#A36957"/>
<path d="M110.46 168.169L117.914 163.748L152.566 150.776L145.758 209.021L120.18 225.123L105.028 217.547L103.518 200.69L110.46 168.169Z" fill="#A36957"/>
<path d="M109.559 256.803L96.0147 274.367L79.2307 270.42L65.8083 277.923L69.3649 284.245L104.979 286.632L117.537 260.749L109.559 256.803Z" fill="#7C3B29"/>
<path d="M68.4634 425.399L82.1293 455.02L104.175 444.826L90.0463 408.176L68.4634 425.399Z" fill="#A36957"/>
<path d="M79.5473 453.035L87.5252 468.26C87.5252 468.26 67.0872 489.392 69.0116 494.118L117.05 471.086L103.822 440.551L79.5473 453.035Z" fill="#FCBA04"/>
<path d="M101.386 459.052C101.918 458.971 102.46 459.089 102.91 459.384C103.359 459.678 103.684 460.128 103.822 460.648C103.926 461.175 103.823 461.721 103.535 462.174C103.247 462.628 102.796 462.953 102.275 463.084C101.714 463.168 101.14 463.042 100.666 462.73C100.191 462.417 99.8493 461.94 99.7054 461.391C99.6569 460.829 99.8277 460.271 100.182 459.833C100.536 459.394 101.046 459.11 101.605 459.04" fill="#E0E0E0"/>
<g opacity="0.6">
<path opacity="0.6" d="M117.05 471.086L115.052 467.249L69.718 490.769C69.718 490.769 68.025 492.717 68.9872 494.118L117.05 471.086Z" fill="white"/>
</g>
<path d="M86.636 468.394C86.7457 468.625 87.9758 468.163 89.4862 468.394C90.9965 468.625 92.0927 469.283 92.2632 469.088C92.4337 468.893 91.435 467.7 89.5958 467.493C87.7566 467.286 86.4777 468.199 86.636 468.394Z" fill="#263238"/>
<path d="M82.5924 472.888C82.5924 473.144 83.8104 473.059 85.1258 473.668C86.4412 474.277 87.1355 475.215 87.3547 475.093C87.574 474.971 87.099 473.571 85.5034 472.84C83.9078 472.109 82.4827 472.633 82.5924 472.888Z" fill="#263238"/>
<path d="M82.6166 480.294C82.8602 480.294 82.6166 478.906 81.3986 477.858C80.1806 476.811 78.8408 476.871 78.8408 477.115C78.8408 477.359 79.8396 477.724 80.8262 478.552C81.8127 479.38 82.373 480.379 82.6166 480.294Z" fill="#263238"/>
<path d="M84.334 462.523C84.5411 462.694 85.4546 461.853 86.77 461.305C88.0855 460.757 89.3766 460.684 89.4009 460.428C89.4253 460.172 88.0246 459.807 86.429 460.428C84.8334 461.049 84.1391 462.401 84.334 462.523Z" fill="#263238"/>
<path d="M82.9333 459.478C82.9333 459.478 82.6897 459.174 82.4827 458.516C82.2087 457.575 82.134 456.588 82.2634 455.617C82.289 455.283 82.3628 454.955 82.4827 454.643C82.5587 454.439 82.6881 454.259 82.8573 454.122C83.0265 453.984 83.2294 453.895 83.4449 453.863C83.5753 453.847 83.7078 453.86 83.8323 453.902C83.9568 453.944 84.0701 454.014 84.1635 454.107C84.325 454.292 84.4269 454.521 84.4558 454.765C84.4869 455.17 84.4869 455.577 84.4558 455.983C84.4558 456.799 84.4558 457.578 84.2609 458.516C84.2213 458.791 84.1073 459.05 83.9313 459.264C83.7553 459.479 83.5239 459.641 83.2622 459.734C82.776 459.881 82.2605 459.902 81.764 459.795C80.4262 459.562 79.1373 459.105 77.9517 458.443C77.5447 458.243 77.1806 457.966 76.8798 457.627C76.7167 457.425 76.6277 457.174 76.6277 456.914C76.6277 456.655 76.7167 456.403 76.8798 456.202C77.0431 456.056 77.2392 455.953 77.4514 455.9C77.6635 455.847 77.8853 455.846 78.0978 455.897C78.7565 456.074 79.3907 456.332 79.9858 456.665C80.8389 457.129 81.6222 457.711 82.3121 458.394C82.7871 458.881 83.0064 459.186 82.9699 459.222C81.9808 458.399 80.9117 457.677 79.7787 457.067C79.2179 456.779 78.6251 456.558 78.0126 456.409C77.8793 456.373 77.7394 456.368 77.6041 456.396C77.4688 456.423 77.3418 456.482 77.2331 456.567C77.166 456.677 77.1368 456.805 77.1501 456.933C77.1633 457.06 77.2181 457.18 77.3062 457.274C77.5665 457.537 77.8717 457.751 78.2075 457.907C78.5702 458.107 78.9443 458.286 79.328 458.443C80.1114 458.773 80.9281 459.018 81.764 459.174C82.1635 459.277 82.5826 459.277 82.982 459.174C83.1408 459.121 83.2814 459.025 83.3871 458.895C83.4928 458.766 83.5594 458.609 83.5789 458.443C83.6885 457.663 83.725 456.762 83.7981 456.007C83.8264 455.638 83.8264 455.267 83.7981 454.899C83.7981 454.582 83.6276 454.436 83.3962 454.448C82.8724 454.448 82.6897 455.191 82.6045 455.751C82.4783 457.003 82.5899 458.268 82.9333 459.478Z" fill="#263238"/>
<path d="M68.1469 435.569L33.3486 348.957C33.3486 348.957 34.1525 333.586 37.0026 328.726C39.8528 323.866 125.624 295.536 125.624 295.536C125.624 295.536 147.475 290.286 162.043 295.536C176.61 300.785 187.535 319.019 185.513 329.128C183.492 339.237 174.953 346.679 174.953 346.679L111.861 348.555L77.4768 361.1L100.619 427.481C100.619 427.481 88.792 440.429 68.1469 435.569Z" fill="#263238"/>
<path d="M37.3314 377.507L36.5154 410.113L60.8023 410.697L64.298 371.575L37.3314 377.507Z" fill="#A36957"/>
<path d="M35.066 407.189L35.5167 424.375C35.5167 424.375 7.85591 434.314 7.50269 439.405L60.7658 439.941L62.4101 406.714L35.066 407.189Z" fill="#FCBA04"/>
<path d="M52.0084 422.232C52.5207 422.395 52.955 422.741 53.229 423.203C53.503 423.666 53.5974 424.213 53.4944 424.741C53.3487 425.249 53.0174 425.684 52.5662 425.959C52.115 426.234 51.5768 426.33 51.0584 426.227C50.5188 426.052 50.0625 425.685 49.777 425.195C49.4916 424.705 49.397 424.127 49.5115 423.572C49.7233 423.057 50.1246 422.644 50.6324 422.418C51.1401 422.191 51.7156 422.168 52.2398 422.354" fill="#E0E0E0"/>
<g opacity="0.6">
<path opacity="0.6" d="M60.7536 439.942L60.6561 435.618L9.62195 436.726C9.62195 436.726 7.18595 437.725 7.49045 439.406L60.7536 439.942Z" fill="white"/>
</g>
<path d="M34.6517 424.095C34.6517 424.363 35.955 424.485 37.2339 425.313C38.5128 426.142 39.1705 427.262 39.4141 427.165C39.6577 427.067 39.2802 425.557 37.7211 424.558C36.1621 423.559 34.603 423.913 34.6517 424.095Z" fill="#263238"/>
<path d="M29.049 426.349C28.9759 426.604 30.1087 427.055 30.9735 428.163C31.8382 429.272 32.094 430.441 32.3498 430.429C32.6056 430.417 32.7883 428.955 31.6799 427.603C30.5715 426.251 29.049 426.105 29.049 426.349Z" fill="#263238"/>
<path d="M25.797 433.011C26.0406 433.011 26.4182 431.793 25.797 430.344C25.1758 428.894 23.9335 428.334 23.8239 428.541C23.7142 428.748 24.4572 429.528 24.9688 430.709C25.4803 431.891 25.5412 432.975 25.797 433.011Z" fill="#263238"/>
<path d="M35.1878 417.823C35.2974 418.066 36.491 417.713 37.9648 417.823C39.4386 417.932 40.5713 418.407 40.7053 418.188C40.8393 417.969 39.7553 417.031 38.0257 416.97C36.2961 416.909 35.066 417.616 35.1878 417.823Z" fill="#263238"/>
<path d="M35.261 414.473C35.1832 414.124 35.1832 413.762 35.261 413.414C35.4279 412.448 35.7928 411.527 36.3328 410.71C36.51 410.424 36.7228 410.162 36.9662 409.93C37.1262 409.78 37.3239 409.676 37.5383 409.628C37.7527 409.581 37.9759 409.593 38.1842 409.662C38.3084 409.705 38.4211 409.775 38.514 409.868C38.6069 409.961 38.6774 410.074 38.7201 410.198C38.7924 410.432 38.7924 410.683 38.7201 410.917C38.5581 411.29 38.3709 411.652 38.1598 412.001C37.7457 412.695 37.3925 413.401 36.8688 414.181C36.7128 414.408 36.4975 414.589 36.2463 414.703C35.9951 414.816 35.7175 414.859 35.4437 414.826C34.9393 414.748 34.4645 414.538 34.0674 414.217C33.3225 413.673 32.6403 413.048 32.0333 412.354C31.7532 412.013 31.4852 411.672 31.2416 411.319C30.9614 410.958 30.7583 410.543 30.6448 410.101C30.5772 409.846 30.6012 409.577 30.7125 409.338C30.8239 409.1 31.0155 408.909 31.2538 408.797C31.4653 408.743 31.6868 408.741 31.8991 408.792C32.1113 408.843 32.3079 408.945 32.4718 409.09C32.9859 409.542 33.4403 410.057 33.8238 410.624C34.3866 411.413 34.8337 412.279 35.1514 413.194C35.2905 413.523 35.3689 413.873 35.3828 414.23C34.8516 413.057 34.2071 411.939 33.4584 410.892C33.0834 410.385 32.65 409.923 32.1673 409.516C32.0637 409.425 31.9407 409.359 31.8077 409.323C31.6746 409.287 31.5352 409.282 31.3999 409.309C31.2896 409.377 31.2054 409.48 31.1612 409.601C31.1169 409.723 31.1152 409.856 31.1563 409.979C31.2685 410.33 31.4462 410.656 31.6801 410.941C31.9175 411.284 32.1737 411.613 32.4474 411.928C33.0301 412.59 33.6836 413.186 34.3962 413.706C34.7159 413.951 35.0862 414.122 35.4802 414.205C35.6474 414.224 35.8167 414.197 35.9692 414.126C36.1218 414.055 36.2519 413.943 36.345 413.803C36.7835 413.158 37.2098 412.366 37.563 411.708C37.7661 411.398 37.9453 411.072 38.0989 410.734C38.2086 410.429 38.0989 410.235 37.9406 410.149C37.4534 409.954 36.9784 410.503 36.6495 410.965C35.972 412.038 35.501 413.228 35.261 414.473Z" fill="#263238"/>
<path d="M51.509 286.985C51.509 286.985 36.893 285.828 35.3461 301.601C33.7993 317.374 32.1306 391.027 32.1306 391.027L66.125 393.864L71.3868 318.58L125.624 295.535C125.624 295.535 61.1921 284.963 51.509 286.985Z" fill="#263238"/>
<path d="M111.471 265.695C111.471 265.695 102.641 290.444 104.321 293.209C106.002 295.974 128.681 307.314 128.681 307.314L185.489 329.128C189.432 321.919 191.442 313.812 191.323 305.596C191.323 291.333 171.567 265.695 171.567 265.695H111.471Z" fill="#263238"/>
<path d="M128.304 294.281C128.304 294.281 128.219 294.281 128.036 294.427L127.232 294.793L124.09 296.193L112.275 301.345L71.5086 318.885L71.6913 318.629C71.1797 326.071 70.6194 334.097 70.047 342.404C68.6584 361.831 67.3917 379.736 66.393 393.901V394.157H66.1494L41.3387 391.965L34.5179 391.331L32.7396 391.136C32.5343 391.129 32.3302 391.1 32.1306 391.051C32.3372 391.032 32.5452 391.032 32.7518 391.051L34.5301 391.161L41.3631 391.66L66.1494 393.621L65.8814 393.852C66.8436 379.687 68.0738 361.77 69.4136 342.343C69.9982 334.037 70.5585 326.01 71.0823 318.58V318.385L71.2528 318.312L112.117 300.98L123.992 295.998L127.183 294.683L128.012 294.366L128.304 294.281Z" fill="#455A64"/>
<path d="M173.492 296.754C172.944 296.672 172.409 296.525 171.896 296.315L167.621 294.939C162.95 293.346 158.161 292.124 153.297 291.285C148.452 290.491 143.504 290.557 138.681 291.48C136.696 291.94 134.736 292.505 132.811 293.173C133.276 292.876 133.769 292.627 134.284 292.43C135.674 291.842 137.113 291.378 138.584 291.041C143.463 289.968 148.503 289.84 153.431 290.664C158.326 291.484 163.134 292.761 167.792 294.476C169.582 295.109 171.019 295.694 172.018 296.047C172.531 296.235 173.024 296.471 173.492 296.754Z" fill="#455A64"/>
<path d="M165.453 283.709C163.802 283.606 162.147 283.606 160.496 283.709C158.961 283.806 157.146 284.05 155.112 284.281C153.078 284.512 150.873 284.793 148.571 285.231C144.624 285.858 140.84 287.261 137.439 289.36C136.078 290.3 134.787 291.338 133.578 292.466C133.795 292.067 134.074 291.705 134.406 291.394C135.24 290.483 136.171 289.666 137.183 288.958C140.584 286.714 144.425 285.223 148.45 284.586C150.776 284.135 153.017 283.879 155.051 283.672C157.085 283.465 158.912 283.282 160.471 283.234C161.692 283.174 162.915 283.227 164.125 283.392C164.582 283.425 165.03 283.532 165.453 283.709Z" fill="#455A64"/>
<path d="M110.07 168.133C110.07 168.133 100.412 199.106 100.631 207.973C100.85 216.84 104.528 242.077 104.102 246.949C103.676 251.821 105.418 265.609 111.41 265.609H171.531C171.531 265.609 185.111 261.846 185.696 253.697C186.281 245.549 167.426 166.415 167.426 166.415C167.426 166.415 163.869 151.872 158.9 150.813C153.931 149.753 148.376 150.813 145.051 161.08C141.726 171.348 140.618 185.842 133.517 192.943C126.416 200.044 116.319 208.01 116.319 208.01C116.319 208.01 108.17 201.189 107.793 191.957C107.415 182.724 110.886 167.779 110.886 167.779L110.07 168.133Z" fill="#FCBA04"/>
<path d="M173.358 173.565C171.775 171.188 169.449 169.402 166.744 168.486C164.06 167.582 161.265 167.046 158.437 166.89C155.919 166.546 153.361 166.637 150.873 167.158C148.437 167.792 147.414 170.812 146.391 173.151C144.751 183.556 145.303 194.189 148.011 204.368C148.248 205.917 148.849 207.388 149.766 208.659C150.683 209.929 151.889 210.964 153.285 211.676C155.337 213.174 157.725 214.144 160.24 214.502C164.746 214.843 168.9 211.579 171.007 207.584C173.114 203.589 173.589 198.96 174.015 194.466C174.3 191.648 174.572 188.835 174.831 186.025C175.246 181.762 175.587 177.182 173.358 173.565Z" fill="#A36957"/>
<path d="M118.974 266.364C118.097 266.152 117.283 265.735 116.599 265.146C114.885 263.781 113.509 262.039 112.58 260.055C111.658 258.114 110.971 256.069 110.533 253.965C110.278 253.106 110.139 252.218 110.119 251.322C110.489 252.134 110.771 252.983 110.96 253.855C111.518 255.904 112.252 257.901 113.152 259.824C114.049 261.731 115.316 263.441 116.879 264.854C118.097 265.828 119.023 266.267 118.974 266.364Z" fill="#263238"/>
<path d="M150.788 227.973C150.488 228.298 150.148 228.584 149.777 228.826C148.799 229.523 147.76 230.131 146.671 230.64C145.039 231.392 143.309 231.909 141.531 232.175C139.349 232.49 137.126 232.395 134.979 231.895C131.091 230.905 127.557 228.851 124.772 225.963C123.927 225.113 123.142 224.205 122.421 223.247C122.145 222.901 121.908 222.525 121.715 222.127C121.812 222.053 122.933 223.588 125.076 225.647C127.881 228.362 131.344 230.302 135.125 231.274C138.914 232.134 142.878 231.776 146.452 230.251C149.241 229.033 150.715 227.815 150.788 227.973Z" fill="#263238"/>
<path d="M118.231 265.244C118.097 265.353 117.269 264.403 117.013 262.93C116.876 262.498 116.83 262.043 116.876 261.592C116.922 261.142 117.06 260.706 117.281 260.311C117.464 260.311 117.366 261.468 117.634 262.747C117.902 264.026 118.438 265.146 118.231 265.244Z" fill="#263238"/>
<path d="M143.139 173.419C142.592 173.536 142.084 173.791 141.665 174.162C141.196 174.624 140.87 175.212 140.727 175.855C140.612 176.275 140.602 176.716 140.697 177.141C140.793 177.566 140.991 177.961 141.275 178.291L141.495 178.51L141.19 178.607C140.444 178.852 139.756 179.248 139.171 179.773C138.586 180.297 138.116 180.937 137.792 181.652C137.359 182.507 137.143 183.456 137.164 184.414C137.185 185.373 137.443 186.311 137.914 187.146L138.279 187.742L137.597 187.56C136.813 187.36 135.986 187.401 135.226 187.678C134.466 187.956 133.807 188.456 133.336 189.114C132.864 189.773 132.603 190.558 132.585 191.367C132.568 192.176 132.795 192.972 133.237 193.65L132.676 193.93C132.427 193.44 132.006 193.06 131.493 192.862C130.981 192.665 130.413 192.663 129.899 192.858C129.325 193.022 128.804 193.333 128.388 193.76C127.971 194.187 127.673 194.716 127.524 195.294C127.18 196.481 127.007 197.712 127.013 198.948L126.964 200.653L126.44 198.972C126.259 198.541 125.935 198.185 125.523 197.963C125.111 197.741 124.635 197.668 124.175 197.754C123.724 197.854 123.303 198.061 122.949 198.358C122.595 198.655 122.318 199.033 122.141 199.46C121.337 201.177 121.824 203.114 122.141 204.685H121.653C121.649 204.28 121.553 203.882 121.374 203.52C121.195 203.157 120.936 202.839 120.618 202.59C120.053 202.109 119.338 201.842 118.596 201.835C118.001 201.873 117.436 202.112 116.994 202.513C116.552 202.913 116.258 203.451 116.16 204.039C115.976 204.805 116.08 205.611 116.453 206.305C116.721 206.768 116.964 206.95 116.94 206.987C116.688 206.839 116.479 206.629 116.331 206.378C115.958 205.758 115.79 205.036 115.849 204.315C115.908 203.594 116.191 202.91 116.66 202.358C116.904 202.079 117.202 201.852 117.538 201.693C117.873 201.534 118.238 201.445 118.608 201.433C119.455 201.417 120.279 201.702 120.935 202.237C121.302 202.531 121.601 202.9 121.811 203.321C122.021 203.742 122.138 204.203 122.153 204.673V206.682L121.678 204.734C121.438 203.868 121.266 202.984 121.166 202.09C121.038 201.091 121.185 200.076 121.593 199.155C121.8 198.639 122.131 198.182 122.555 197.824C122.98 197.465 123.486 197.215 124.029 197.097C124.629 196.978 125.251 197.073 125.789 197.364C126.327 197.656 126.747 198.125 126.976 198.692L126.379 198.778C126.376 197.496 126.556 196.22 126.915 194.99C127.124 194.338 127.46 193.734 127.902 193.211C128.388 192.672 129.024 192.291 129.729 192.115C130.401 191.918 131.115 191.918 131.787 192.115C132.125 192.226 132.432 192.412 132.688 192.658C132.943 192.905 133.139 193.207 133.261 193.54L134.138 195.976L132.701 193.772C132.184 192.992 131.917 192.074 131.934 191.139C131.952 190.204 132.254 189.297 132.8 188.538C133.347 187.779 134.111 187.204 134.992 186.89C135.872 186.576 136.828 186.538 137.731 186.78L137.414 187.207C136.905 186.292 136.632 185.266 136.619 184.22C136.607 183.173 136.855 182.14 137.341 181.214C137.7 180.445 138.217 179.76 138.859 179.206C139.502 178.652 140.255 178.24 141.068 177.998L140.983 178.315C140.669 177.941 140.453 177.494 140.356 177.016C140.258 176.537 140.281 176.042 140.423 175.575C140.601 174.888 140.983 174.272 141.519 173.809C141.853 173.525 142.25 173.324 142.676 173.224C142.839 173.267 142.995 173.332 143.139 173.419Z" fill="#FCBA04"/>
<path d="M110.363 168.352C110.363 168.352 110.436 168.352 110.533 168.583C110.661 168.837 110.736 169.115 110.752 169.399C110.777 169.863 110.68 170.324 110.472 170.739C110.184 171.314 109.681 171.752 109.072 171.957V171.677C109.609 172.122 110.042 172.68 110.339 173.312C110.636 173.944 110.79 174.633 110.789 175.331C110.826 176.235 110.619 177.133 110.19 177.93C109.762 178.727 109.127 179.394 108.353 179.862V179.411C109.093 180.011 109.645 180.811 109.943 181.716C110.241 182.621 110.272 183.592 110.034 184.515C109.459 186.476 108.442 188.28 107.062 189.789L106.562 189.399C106.801 189.138 107.095 188.935 107.424 188.805C107.752 188.675 108.106 188.622 108.458 188.649C108.81 188.676 109.151 188.782 109.456 188.961C109.761 189.139 110.021 189.385 110.217 189.679C110.532 190.208 110.708 190.808 110.73 191.423C110.751 192.039 110.616 192.65 110.338 193.199C109.818 194.193 109.106 195.075 108.243 195.793L107.927 195.27C108.365 195.097 108.835 195.016 109.306 195.031C109.777 195.047 110.24 195.158 110.667 195.359C111.093 195.56 111.474 195.846 111.786 196.2C112.098 196.553 112.335 196.967 112.481 197.415C112.627 197.863 112.681 198.337 112.637 198.806C112.594 199.275 112.455 199.731 112.23 200.145C112.004 200.559 111.696 200.922 111.324 201.213C110.953 201.503 110.526 201.715 110.07 201.835L109.376 202.03L109.79 201.433C110.081 201.063 110.467 200.78 110.907 200.614C111.348 200.449 111.825 200.408 112.287 200.495C113.092 200.599 113.843 200.957 114.431 201.518C114.867 201.986 115.207 202.536 115.43 203.136C115.654 203.736 115.757 204.374 115.734 205.014C115.746 205.806 115.681 206.597 115.539 207.377C115.511 207.651 115.45 207.921 115.356 208.18C115.259 208.18 115.515 207.035 115.442 205.026C115.436 203.832 114.974 202.686 114.151 201.822C113.637 201.39 113.013 201.112 112.348 201.019C111.973 200.957 111.588 200.998 111.234 201.137C110.88 201.277 110.571 201.509 110.338 201.81L110.058 201.408C110.746 201.165 111.324 200.684 111.688 200.052C112.052 199.42 112.178 198.678 112.044 197.961C111.935 197.576 111.75 197.217 111.5 196.905C111.249 196.593 110.939 196.334 110.587 196.144C110.234 195.954 109.848 195.837 109.449 195.8C109.051 195.763 108.649 195.806 108.268 195.927L106.855 196.427L107.951 195.404C108.75 194.727 109.408 193.899 109.888 192.968C110.123 192.52 110.24 192.02 110.227 191.515C110.214 191.009 110.072 190.516 109.815 190.081C109.674 189.871 109.489 189.695 109.272 189.565C109.056 189.435 108.813 189.354 108.562 189.329C108.311 189.303 108.057 189.333 107.819 189.417C107.581 189.501 107.364 189.636 107.184 189.813L106.684 189.435C108.01 188.005 108.997 186.294 109.571 184.429C109.796 183.617 109.784 182.758 109.535 181.953C109.287 181.148 108.813 180.431 108.17 179.886L107.817 179.643L108.195 179.423C108.892 179.008 109.466 178.415 109.858 177.704C110.249 176.993 110.445 176.191 110.424 175.38C110.44 174.737 110.317 174.097 110.063 173.507C109.808 172.916 109.428 172.387 108.95 171.957L108.694 171.787L108.999 171.701C109.522 171.525 109.958 171.154 110.217 170.666C110.427 170.294 110.54 169.875 110.545 169.448C110.554 169.074 110.492 168.702 110.363 168.352Z" fill="#FCBA04"/>
<g opacity="0.3">
<path opacity="0.3" d="M122.725 223.515C123.149 228.113 125.367 232.358 128.901 235.33C130.673 236.776 132.761 237.784 134.996 238.27C137.231 238.757 139.55 238.71 141.763 238.131C143.963 237.499 145.948 236.274 147.498 234.589C149.049 232.905 150.107 230.827 150.557 228.582C147.529 230.138 144.299 231.261 140.959 231.919C137.356 232.405 133.69 231.838 130.403 230.286C127.115 228.735 124.347 226.264 122.433 223.174C122.591 223.357 122.762 223.527 122.92 223.698" fill="black"/>
</g>
<g opacity="0.3">
<path opacity="0.3" d="M110.095 252.175C109.667 254.458 109.837 256.813 110.588 259.011C111.34 261.21 112.646 263.176 114.382 264.72C114.712 265.094 115.135 265.374 115.607 265.535C116.079 265.695 116.585 265.729 117.074 265.634C113.694 261.68 111.324 256.966 110.168 251.895" fill="black"/>
</g>
<path d="M157.219 163.346C157.219 163.346 143.614 165.477 146.903 184.819C150.191 204.161 173.699 236.913 173.699 236.913L122.311 268.252L128.304 282.174L195.038 254.708C195.038 254.708 201.615 247.936 199.301 240.396C196.987 232.857 179.813 185.367 179.813 185.367C179.813 185.367 173.467 160.057 157.219 163.346Z" fill="#A36957"/>
<path d="M77.4765 280.189L95.8683 268.569L120.228 269.714L122.275 268.301L128.267 282.223C128.267 282.223 121.702 285.365 118.267 285.645L96.9889 284.025L74.3828 282.332L77.4765 280.189Z" fill="#A36957"/>
<path d="M173.638 237.291C173.187 236.804 172.779 236.278 172.42 235.72C171.689 234.684 170.654 233.162 169.399 231.274C166.902 227.474 163.577 222.151 160.155 216.122C156.732 210.093 153.882 204.502 151.909 200.41C150.922 198.363 150.155 196.695 149.643 195.538C149.333 194.954 149.081 194.343 148.888 193.711C149.251 194.261 149.568 194.839 149.838 195.44L152.274 200.227C154.345 204.259 157.268 209.8 160.678 215.817C164.089 221.834 167.341 227.194 169.74 231.042L172.59 235.598C172.988 236.131 173.338 236.697 173.638 237.291Z" fill="#7C3B29"/>
<path d="M186.281 241.7C184.337 240.476 182.3 239.405 180.191 238.497C177.982 237.792 175.722 237.262 173.431 236.913C175.8 236.744 178.177 237.084 180.404 237.909C182.631 238.735 184.655 240.027 186.341 241.7H186.281Z" fill="#7C3B29"/>
<path d="M3.39795 222.126C3.86079 223.539 22.3257 285.596 22.3257 285.596L128.292 293.209L132.189 286.632L73.0188 282.174L56.4175 218.497C56.0806 217.218 55.2811 216.111 54.1739 215.388C53.0667 214.666 51.7307 214.38 50.4249 214.587L3.39795 222.126Z" fill="#455A64"/>
<path d="M36.8321 248.168C37.7212 250.019 37.3558 252.041 35.9916 252.699C34.6275 253.356 32.8127 252.394 31.9235 250.555C31.0344 248.716 31.3998 246.682 32.7518 246.024C34.1037 245.366 35.9429 246.328 36.8321 248.168Z" fill="#FAFAFA"/>
<path d="M130.155 290.091H129.838H128.949L125.478 289.896L112.64 289.044L69.6449 285.95H69.4257L69.3648 285.743C68.7923 283.745 68.1468 281.626 67.5622 279.482L54.5661 233.734L50.705 219.873C50.2666 218.266 49.9255 216.999 49.6819 216.085C49.5845 215.683 49.4992 215.367 49.4383 215.099C49.3965 214.99 49.3718 214.875 49.3652 214.758C49.4257 214.86 49.4709 214.971 49.4992 215.087C49.5723 215.342 49.6819 215.659 49.8037 216.061C50.0839 216.962 50.4614 218.205 50.9365 219.8L55.0046 233.612L68.1833 279.251C68.7923 281.395 69.4013 283.514 69.9738 285.511L69.6937 285.28L112.677 288.581L125.49 289.628L128.949 289.933L129.851 290.03C129.955 290.034 130.058 290.054 130.155 290.091Z" fill="#263238"/>
<path d="M145.076 100.461L144.978 95.686L116.136 91.3986C107.269 90.8262 98.0975 100.046 97.8661 108.926C97.6469 118.791 97.7687 130.85 99.2303 138.158C102.178 152.774 113.566 154.247 113.566 154.247L114.224 168.863L146.878 167.95L145.076 100.461Z" fill="#A36957"/>
<path d="M104.005 119.267C104.018 119.76 104.224 120.228 104.58 120.57C104.936 120.912 105.412 121.1 105.905 121.094C106.146 121.103 106.387 121.065 106.613 120.98C106.84 120.896 107.047 120.767 107.223 120.601C107.399 120.436 107.54 120.237 107.637 120.016C107.735 119.795 107.788 119.557 107.793 119.315C107.777 118.822 107.57 118.354 107.215 118.011C106.861 117.668 106.386 117.476 105.893 117.476C105.65 117.466 105.409 117.505 105.181 117.59C104.954 117.676 104.747 117.806 104.571 117.973C104.395 118.14 104.254 118.34 104.157 118.562C104.06 118.785 104.008 119.024 104.005 119.267Z" fill="#263238"/>
<path d="M101.264 115.089C101.508 115.32 102.909 114.2 104.918 114.127C106.928 114.053 108.487 115.003 108.694 114.748C108.901 114.492 108.548 114.2 107.878 113.749C106.97 113.175 105.907 112.894 104.833 112.945C103.774 112.988 102.756 113.363 101.922 114.017C101.386 114.541 101.155 114.979 101.264 115.089Z" fill="#263238"/>
<path d="M123.042 118.852C123.061 119.345 123.269 119.811 123.623 120.153C123.977 120.496 124.449 120.689 124.942 120.691C125.184 120.7 125.425 120.66 125.652 120.574C125.878 120.488 126.085 120.358 126.261 120.191C126.436 120.025 126.577 119.825 126.675 119.603C126.773 119.382 126.825 119.143 126.83 118.901C126.817 118.407 126.611 117.937 126.256 117.593C125.9 117.249 125.424 117.058 124.93 117.062C124.688 117.054 124.447 117.094 124.22 117.18C123.994 117.266 123.787 117.396 123.611 117.562C123.436 117.729 123.295 117.929 123.197 118.15C123.099 118.372 123.047 118.61 123.042 118.852Z" fill="#263238"/>
<path d="M121.313 114.65C121.556 114.894 122.945 113.773 124.967 113.7C126.988 113.627 128.535 114.577 128.755 114.321C128.974 114.066 128.596 113.761 127.926 113.323C127.025 112.743 125.964 112.462 124.894 112.519C123.832 112.549 122.81 112.926 121.983 113.591C121.386 114.09 121.191 114.541 121.313 114.65Z" fill="#263238"/>
<path d="M114.528 130.058C113.438 129.771 112.318 129.616 111.191 129.595C110.667 129.595 110.18 129.486 110.07 129.132C110.008 128.595 110.11 128.052 110.363 127.573C110.801 126.355 111.252 124.955 111.739 123.554C113.639 117.829 115.003 113.128 114.772 113.055C114.54 112.982 112.811 117.561 110.899 123.286C110.436 124.699 109.997 126.039 109.583 127.33C109.286 127.97 109.221 128.693 109.4 129.376C109.482 129.558 109.605 129.719 109.759 129.846C109.913 129.973 110.095 130.062 110.29 130.107C110.581 130.175 110.88 130.203 111.179 130.192C112.296 130.293 113.422 130.248 114.528 130.058Z" fill="#263238"/>
<path d="M113.566 154.272C120.682 154.102 127.617 151.997 133.627 148.182C133.627 148.182 129.059 158.718 113.725 157.926L113.566 154.272Z" fill="#7C3B29"/>
<path d="M115.588 134.93C115.955 134.424 116.445 134.021 117.013 133.758C117.58 133.496 118.205 133.384 118.828 133.432C119.284 133.463 119.729 133.587 120.135 133.796C120.542 134.006 120.901 134.296 121.191 134.65C121.479 134.98 121.658 135.391 121.704 135.827C121.749 136.263 121.66 136.703 121.447 137.086C121.136 137.467 120.718 137.746 120.246 137.885C119.774 138.024 119.271 138.017 118.804 137.865C117.828 137.561 116.922 137.069 116.136 136.416C115.902 136.257 115.696 136.059 115.527 135.831C115.453 135.719 115.413 135.588 115.413 135.454C115.413 135.319 115.453 135.188 115.527 135.076" fill="#7C3B29"/>
<path d="M120.582 131.227C120.253 131.227 120.338 133.432 118.499 135.076C116.66 136.721 114.309 136.574 114.309 136.891C114.309 137.208 114.845 137.293 115.844 137.281C117.139 137.242 118.381 136.751 119.352 135.892C120.283 135.07 120.855 133.916 120.947 132.677C120.996 131.751 120.728 131.203 120.582 131.227Z" fill="#263238"/>
<path d="M120.46 106.697C120.679 107.233 122.701 106.892 125.101 107.087C127.5 107.281 129.461 107.854 129.765 107.342C129.899 107.099 129.534 106.587 128.742 106.124C127.677 105.506 126.485 105.139 125.256 105.053C124.027 104.966 122.795 105.162 121.654 105.625C120.789 106.015 120.363 106.429 120.46 106.697Z" fill="#263238"/>
<path d="M101.776 109.157C102.153 109.608 103.542 109.072 105.223 108.974C106.904 108.877 108.353 109.169 108.67 108.67C108.804 108.426 108.56 107.976 107.915 107.562C107.059 107.055 106.067 106.829 105.077 106.916C104.087 106.977 103.139 107.338 102.36 107.951C101.788 108.451 101.605 108.938 101.776 109.157Z" fill="#263238"/>
<path d="M94.0781 91.0577C96.5141 96.222 101.776 103.908 107.476 104.456C110.317 104.7 113.173 104.212 115.772 103.039C118.371 101.867 120.627 100.048 122.324 97.7567C123.274 101.947 127.999 104.078 132.25 104.675C135.253 105.221 138.348 104.939 141.203 103.859C142.622 103.305 143.875 102.398 144.845 101.223C145.815 100.049 146.469 98.6458 146.744 97.1477C147.134 94.1392 142.689 86.8678 139.692 86.3684" fill="#263238"/>
<path d="M140.155 166.501C140.344 168.889 141.263 171.162 142.789 173.01C144.314 174.858 146.371 176.191 148.681 176.829C148.612 178.784 149.239 180.699 150.451 182.234C151.663 183.768 153.381 184.822 155.299 185.207C157.216 185.592 159.208 185.283 160.918 184.335C162.629 183.387 163.947 181.862 164.637 180.033C164.892 179.044 165.304 178.103 165.855 177.243C167.292 175.404 170.118 175.77 172.335 175.051C176.33 173.76 178.059 168.864 177.609 164.686C177.473 163.881 177.436 163.063 177.499 162.25C177.743 160.581 179.058 159.302 180.032 157.914C184.052 152.214 182.371 143.943 177.913 138.572C176.427 136.781 174.551 134.918 174.698 132.592C174.909 131.317 175.32 130.084 175.916 128.938C176.649 126.955 176.77 124.799 176.264 122.747C175.758 120.695 174.648 118.842 173.078 117.427C172.536 117.071 172.112 116.563 171.86 115.966C171.781 115.564 171.781 115.15 171.86 114.748C172.105 111.642 171.166 108.559 169.233 106.117C167.299 103.675 164.513 102.054 161.434 101.581C161.06 101.568 160.693 101.486 160.35 101.338C159.4 100.838 159.363 99.535 159.241 98.4754C158.912 95.6618 156.805 90.4244 154.601 88.5852C148.632 83.494 142.859 87.6352 140.801 89.5718C140.801 89.5718 136.72 109.791 137.512 113.566C138.304 117.342 141.069 126.721 139.948 130.984C138.828 135.247 137.061 143.98 138.73 147.829C140.399 151.678 140.155 166.501 140.155 166.501Z" fill="#263238"/>
<path d="M162.444 101.447C162.444 101.447 162.189 101.715 161.665 102.093C160.91 102.616 160.12 103.088 159.302 103.506C153.853 106.33 147.647 107.349 141.58 106.417C140.665 106.287 139.761 106.088 138.876 105.82C138.545 105.751 138.225 105.636 137.926 105.479C137.926 105.369 139.351 105.723 141.58 105.978C144.553 106.298 147.555 106.22 150.508 105.747C153.457 105.259 156.326 104.37 159.034 103.104C161.178 102.142 162.383 101.362 162.444 101.447Z" fill="#455A64"/>
<path d="M164.393 102.884C164.294 103.306 164.147 103.714 163.955 104.102C163.774 104.568 163.558 105.02 163.309 105.454C163.015 106.046 162.685 106.619 162.323 107.172C161.395 108.633 160.326 109.999 159.132 111.252C157.656 112.776 156.023 114.14 154.26 115.32C152.48 116.472 150.586 117.435 148.608 118.195C146.987 118.797 145.31 119.238 143.602 119.51C142.95 119.631 142.291 119.712 141.629 119.754C141.13 119.788 140.63 119.788 140.131 119.754C139.703 119.792 139.272 119.767 138.852 119.681C138.852 119.559 140.679 119.583 143.517 119.023C145.179 118.69 146.809 118.214 148.389 117.598C152.263 116.075 155.777 113.761 158.705 110.801C159.894 109.591 160.974 108.279 161.933 106.879C163.589 104.516 164.271 102.836 164.393 102.884Z" fill="#455A64"/>
<path d="M153.821 177.999C153.821 177.999 154.077 177.999 154.527 177.925C155.186 177.772 155.779 177.414 156.22 176.902C156.939 176.108 157.334 175.074 157.329 174.004C157.29 172.576 157.031 171.162 156.562 169.814C155.909 168.112 155.782 166.254 156.196 164.479C156.829 162.554 158.364 161.081 159.741 159.497C160.464 158.728 161.06 157.848 161.507 156.891C161.708 156.403 161.803 155.879 161.786 155.352C161.769 154.825 161.641 154.307 161.409 153.833C160.854 152.848 160.068 152.012 159.119 151.397C158.169 150.703 157.122 150.094 156.111 149.351C155.035 148.647 154.188 147.643 153.675 146.465C153.479 145.863 153.412 145.227 153.477 144.598C153.542 143.968 153.738 143.359 154.052 142.811C155.197 140.703 156.988 139.157 157.402 137.171C157.555 136.213 157.501 135.233 157.242 134.298C156.984 133.363 156.527 132.494 155.904 131.751C154.861 130.358 153.668 129.084 152.347 127.951C151.262 126.975 150.268 125.903 149.375 124.748C148.696 123.865 148.172 122.872 147.828 121.812C147.63 121.137 147.548 120.432 147.585 119.729C147.601 119.489 147.646 119.252 147.719 119.023C147.681 119.941 147.796 120.859 148.06 121.739C149.074 124.053 150.653 126.076 152.652 127.622C154.009 128.751 155.235 130.03 156.306 131.434C156.914 132.241 157.394 133.137 157.731 134.09C158.11 135.114 158.186 136.226 157.95 137.293C157.475 139.558 155.611 141.142 154.588 143.103C154.309 143.574 154.134 144.099 154.075 144.643C154.016 145.187 154.075 145.738 154.247 146.257C154.716 147.314 155.482 148.211 156.452 148.84C157.414 149.558 158.474 150.167 159.448 150.886C160.464 151.565 161.3 152.48 161.884 153.553C162.152 154.103 162.3 154.704 162.316 155.315C162.333 155.926 162.219 156.534 161.982 157.098C161.512 158.123 160.874 159.061 160.094 159.875C158.681 161.47 157.195 162.895 156.61 164.625C156.202 166.291 156.291 168.039 156.866 169.655C157.319 171.056 157.55 172.519 157.548 173.991C157.52 175.131 157.063 176.218 156.269 177.036C155.781 177.562 155.128 177.906 154.418 178.011C154.22 178.042 154.018 178.038 153.821 177.999Z" fill="#455A64"/>
<path d="M509.891 546.663C509.891 546.833 396.24 546.979 256.085 546.979C115.929 546.979 2.25342 546.833 2.25342 546.663C2.25342 546.492 115.881 546.346 256.085 546.346C396.289 546.346 509.891 546.48 509.891 546.663Z" fill="#263238"/>
</svg>
