<svg width="675" height="595" viewBox="0 0 675 595" fill="none" xmlns="http://www.w3.org/2000/svg">
<path d="M317.049 595C464.276 595 583.628 588.565 583.628 580.628C583.628 572.69 464.276 566.256 317.049 566.256C169.822 566.256 50.4707 572.69 50.4707 580.628C50.4707 588.565 169.822 595 317.049 595Z" fill="#F2F2F2"/>
<path d="M472.796 138.09H469.767V50.6232C469.768 37.1971 464.709 24.3209 455.704 14.8272C446.699 5.33353 434.486 1.48234e-05 421.752 0H245.987C233.252 -2.54114e-05 221.039 5.33344 212.034 14.8271C203.03 24.3208 197.971 37.197 197.971 50.6231V530.471C197.971 543.897 203.029 556.773 212.034 566.267C221.039 575.76 233.252 581.094 245.986 581.094H421.752C434.486 581.094 446.699 575.76 455.704 566.267C464.709 556.773 469.767 543.897 469.767 530.471V200.35H472.796L472.796 138.09Z" fill="#3F3D56"/>
<path d="M459.548 50.9763V530.118C459.547 540.145 455.769 549.761 449.044 556.851C442.32 563.941 433.199 567.924 423.688 567.924H247.08C237.57 567.924 228.449 563.941 221.724 556.851C214.999 549.761 211.221 540.145 211.221 530.118V50.9763C211.221 40.9494 214.999 31.3332 221.724 24.2432C228.449 17.1531 237.57 13.1699 247.08 13.1697H268.505C267.452 15.8972 267.051 18.8556 267.337 21.7848C267.624 24.7139 268.588 27.5241 270.146 29.968C271.704 32.4119 273.808 34.4147 276.273 35.8002C278.737 37.1857 281.487 37.9115 284.28 37.9136H384.974C387.767 37.9114 390.516 37.1857 392.981 35.8002C395.446 34.4146 397.549 32.4119 399.107 29.9679C400.665 27.524 401.63 24.7139 401.916 21.7848C402.203 18.8556 401.802 15.8972 400.749 13.1697H423.688C433.199 13.1699 442.32 17.1531 449.044 24.2432C455.769 31.3332 459.547 40.9494 459.548 50.9763V50.9763Z" fill="white"/>
<path d="M402.653 257.58C401.479 258.227 400.285 258.839 399.07 259.417C397.965 259.944 396.841 260.439 395.701 260.902C395.284 261.069 394.86 261.237 394.436 261.405C391.083 262.687 387.639 263.688 384.136 264.399C382.402 264.758 380.645 265.04 378.865 265.245C377.396 265.421 375.912 265.546 374.412 265.621C373.344 265.676 372.276 265.7 371.201 265.7C366.942 265.702 362.693 265.283 358.508 264.447C357.418 264.239 356.35 263.992 355.282 263.72C350.117 262.415 345.116 260.469 340.385 257.923C339.961 257.7 339.537 257.46 339.113 257.229C338.484 256.877 337.871 256.51 337.258 256.127C337.553 255.696 337.871 255.273 338.197 254.857C341.74 250.227 346.17 246.436 351.196 243.732C356.223 241.027 361.733 239.47 367.369 239.161C373.004 238.852 378.638 239.799 383.903 241.939C389.169 244.08 393.947 247.366 397.927 251.584C399.308 253.045 400.589 254.609 401.759 256.263C402.069 256.694 402.365 257.133 402.653 257.58Z" fill="#6C63FF"/>
<path d="M372.712 222.507C391.078 222.507 405.966 206.81 405.966 187.447C405.966 168.084 391.078 152.387 372.712 152.387C354.347 152.387 339.458 168.084 339.458 187.447C339.458 206.81 354.347 222.507 372.712 222.507Z" fill="#2F2E41"/>
<path d="M381.557 222.556C393.551 215.643 397.959 199.789 391.402 187.143C384.846 174.498 369.808 169.851 357.814 176.763C345.82 183.676 341.412 199.531 347.968 212.176C354.525 224.821 369.563 229.468 381.557 222.556Z" fill="#A0616A"/>
<path d="M395.692 183.246C390.036 187.356 383.323 189.543 376.454 189.515C378.905 191.306 381.694 192.516 384.63 193.061C375.498 195.126 366.059 195.182 356.905 193.225C354.87 192.881 352.906 192.17 351.101 191.123C350.201 190.594 349.417 189.87 348.799 189C348.182 188.129 347.746 187.132 347.518 186.072C346.91 182.408 349.618 179.08 352.432 176.836C356.74 173.454 361.708 171.124 366.975 170.014C372.243 168.904 377.678 169.043 382.889 170.42C386.291 171.347 389.699 172.913 391.909 175.794C394.119 178.675 394.773 183.116 392.668 186.082L395.692 183.246Z" fill="#2F2E41"/>
<path d="M371.201 121.979C356.336 121.977 341.878 127.099 330.031 136.564C318.184 146.029 309.597 159.319 305.579 174.407C301.56 189.496 302.332 205.556 307.775 220.139C313.218 234.722 323.034 247.03 335.728 255.185L336.167 255.456C336.531 255.688 336.894 255.911 337.258 256.127C337.871 256.51 338.484 256.878 339.113 257.229C339.537 257.46 339.961 257.7 340.385 257.923C345.116 260.469 350.117 262.415 355.282 263.72C356.35 263.992 357.417 264.239 358.508 264.447C362.693 265.283 366.942 265.702 371.201 265.7C372.276 265.7 373.344 265.676 374.412 265.621C375.912 265.549 377.396 265.424 378.865 265.245C380.645 265.038 382.402 264.756 384.136 264.399C387.639 263.688 391.082 262.687 394.436 261.405C394.86 261.237 395.284 261.069 395.7 260.902C396.844 260.439 397.967 259.944 399.07 259.417C400.282 258.842 401.476 258.23 402.653 257.58C414.442 251.071 424.187 241.094 430.704 228.86C430.734 228.796 430.772 228.732 430.802 228.668C434.279 222.09 436.746 214.973 438.111 207.581C440.026 197.175 439.736 186.452 437.261 176.178C434.785 165.904 430.186 156.334 423.792 148.154C417.398 139.974 409.367 133.385 400.275 128.86C391.183 124.335 381.255 121.985 371.201 121.979H371.201ZM429.56 227.734C429.5 227.846 429.447 227.958 429.386 228.061C422.999 240.115 413.392 249.922 401.759 256.263C400.6 256.901 399.421 257.5 398.222 258.059C397.23 258.53 396.215 258.977 395.193 259.393C394.761 259.568 394.322 259.744 393.883 259.904C390.986 261.019 388.017 261.916 384.999 262.586C382.761 263.089 380.498 263.465 378.221 263.712C376.82 263.872 375.396 263.984 373.965 264.04C373.049 264.08 372.125 264.103 371.201 264.103C367.079 264.109 362.967 263.705 358.917 262.898C356.454 262.419 354.018 261.79 351.624 261.013C347.976 259.825 344.432 258.311 341.029 256.486C340.635 256.271 340.241 256.055 339.855 255.832C339.302 255.52 338.742 255.201 338.196 254.857C337.787 254.618 337.378 254.362 336.977 254.107C336.742 253.963 336.508 253.811 336.273 253.66C325.144 246.454 316.266 235.962 310.741 223.485C305.216 211.008 303.287 197.096 305.194 183.474C307.1 169.852 312.758 157.12 321.466 146.857C330.173 136.594 341.547 129.253 354.176 125.743C366.805 122.233 380.133 122.71 392.507 127.114C404.882 131.518 415.757 139.655 423.785 150.516C431.813 161.377 436.639 174.484 437.666 188.211C438.693 201.938 435.874 215.681 429.56 227.734H429.56Z" fill="#3F3D56"/>
<path d="M355.872 152.871C355.514 148.904 350.905 146.462 347.301 147.66C343.696 148.859 341.33 152.685 340.615 156.598C340.27 158.245 340.238 159.948 340.52 161.609C340.801 163.27 341.391 164.856 342.254 166.277C344.076 169.041 347.424 170.766 350.547 170.065C354.112 169.263 356.582 165.594 357.288 161.824C357.995 158.054 357.293 154.167 356.593 150.396L355.872 152.871Z" fill="#2F2E41"/>
<path d="M406.6 158.537C406.242 154.571 401.633 152.129 398.028 153.327C394.424 154.525 392.058 158.352 391.342 162.264C390.998 163.912 390.966 165.615 391.247 167.276C391.528 168.937 392.118 170.523 392.982 171.943C394.804 174.708 398.152 176.433 401.275 175.731C404.839 174.93 407.309 171.26 408.016 167.49C408.723 163.72 408.021 159.834 407.32 156.063L406.6 158.537Z" fill="#2F2E41"/>
<path d="M253.389 222.559C252.917 222.559 252.451 222.454 252.02 222.253C251.588 222.052 251.202 221.758 250.885 221.39L213.304 178.167C212.878 177.678 212.36 177.287 211.783 177.019C211.206 176.752 210.583 176.613 209.952 176.612H11.3669C8.35325 176.609 5.464 175.345 3.33302 173.098C1.20205 170.852 0.00338356 167.805 0 164.628V89.1248C0.00338156 85.9475 1.20205 82.9013 3.33302 80.6546C5.464 78.4079 8.35325 77.1442 11.3669 77.1406H268.649C271.663 77.1442 274.552 78.4079 276.683 80.6546C278.814 82.9013 280.013 85.9475 280.016 89.1248V164.628C280.013 167.805 278.814 170.852 276.683 173.098C274.552 175.345 271.663 176.609 268.649 176.612H261.355C260.15 176.614 258.994 177.119 258.141 178.018C257.289 178.917 256.809 180.136 256.808 181.407V218.961C256.811 219.686 256.604 220.394 256.216 220.993C255.828 221.591 255.276 222.051 254.634 222.311C254.237 222.474 253.815 222.559 253.389 222.559V222.559Z" fill="white"/>
<path d="M253.389 222.559C252.917 222.559 252.451 222.454 252.02 222.253C251.588 222.052 251.202 221.758 250.885 221.39L213.304 178.167C212.878 177.678 212.36 177.287 211.783 177.019C211.206 176.752 210.583 176.613 209.952 176.612H11.3669C8.35325 176.609 5.464 175.345 3.33302 173.098C1.20205 170.852 0.00338356 167.805 0 164.628V89.1248C0.00338156 85.9475 1.20205 82.9013 3.33302 80.6546C5.464 78.4079 8.35325 77.1442 11.3669 77.1406H268.649C271.663 77.1442 274.552 78.4079 276.683 80.6546C278.814 82.9013 280.013 85.9475 280.016 89.1248V164.628C280.013 167.805 278.814 170.852 276.683 173.098C274.552 175.345 271.663 176.609 268.649 176.612H261.355C260.15 176.614 258.994 177.119 258.141 178.018C257.289 178.917 256.809 180.136 256.808 181.407V218.961C256.811 219.686 256.604 220.394 256.216 220.993C255.828 221.591 255.276 222.051 254.634 222.311C254.237 222.474 253.815 222.559 253.389 222.559V222.559ZM11.3669 78.7375C8.75483 78.7406 6.25057 79.836 4.40356 81.7833C2.55654 83.7306 1.5176 86.3709 1.51465 89.1248V164.628C1.5176 167.382 2.55655 170.022 4.40357 171.97C6.25059 173.917 8.75483 175.012 11.3669 175.015H209.952C210.793 175.016 211.624 175.201 212.393 175.558C213.162 175.915 213.852 176.436 214.421 177.088L252.001 220.311C252.259 220.607 252.596 220.815 252.968 220.906C253.34 220.998 253.729 220.968 254.085 220.823C254.441 220.677 254.747 220.421 254.962 220.089C255.178 219.756 255.293 219.363 255.293 218.961V181.407C255.295 179.712 255.934 178.088 257.071 176.89C258.207 175.691 259.748 175.017 261.355 175.015H268.649C271.261 175.012 273.766 173.917 275.613 171.97C277.46 170.022 278.499 167.382 278.502 164.628V89.1248C278.499 86.3709 277.46 83.7306 275.613 81.7833C273.766 79.836 271.261 78.7406 268.649 78.7375H11.3669Z" fill="#3F3D56"/>
<path d="M27.882 110.447C33.3753 110.447 37.8285 105.752 37.8285 99.9605C37.8285 94.1689 33.3753 89.4739 27.882 89.4739C22.3887 89.4739 17.9355 94.1689 17.9355 99.9605C17.9355 105.752 22.3887 110.447 27.882 110.447Z" fill="#6C63FF"/>
<path d="M257.045 157.986H22.9713C22.2741 157.987 21.5836 157.843 20.9393 157.563C20.295 157.282 19.7094 156.87 19.2161 156.351C18.7229 155.831 18.3316 155.214 18.0646 154.535C17.7976 153.856 17.6602 153.129 17.6602 152.394C17.6602 151.659 17.7976 150.931 18.0646 150.252C18.3316 149.573 18.7229 148.956 19.2161 148.437C19.7094 147.917 20.295 147.505 20.9393 147.225C21.5836 146.944 22.2741 146.8 22.9713 146.801H257.045C258.451 146.803 259.799 147.393 260.792 148.441C261.786 149.49 262.344 150.911 262.344 152.394C262.344 153.876 261.786 155.297 260.792 156.346C259.799 157.395 258.451 157.985 257.045 157.986V157.986Z" fill="#E6E6E6"/>
<path d="M180.789 134.217H22.9713C22.2741 134.218 21.5836 134.074 20.9393 133.793C20.295 133.513 19.7094 133.101 19.2161 132.581C18.7229 132.062 18.3316 131.445 18.0646 130.766C17.7976 130.087 17.6602 129.359 17.6602 128.624C17.6602 127.889 17.7976 127.161 18.0646 126.482C18.3316 125.803 18.7229 125.186 19.2161 124.667C19.7094 124.148 20.295 123.736 20.9393 123.455C21.5836 123.174 22.2741 123.03 22.9713 123.031H180.789C182.196 123.031 183.545 123.621 184.54 124.669C185.535 125.718 186.094 127.141 186.094 128.624C186.094 130.107 185.535 131.53 184.54 132.579C183.545 133.628 182.196 134.217 180.789 134.217Z" fill="#E6E6E6"/>
<path d="M420.366 478.613C419.724 478.353 419.172 477.893 418.784 477.295C418.396 476.697 418.189 475.988 418.192 475.263V437.709C418.191 436.438 417.711 435.219 416.859 434.32C416.006 433.422 414.85 432.916 413.645 432.914H406.351C403.337 432.911 400.448 431.647 398.317 429.401C396.186 427.154 394.987 424.108 394.984 420.93V345.427C394.987 342.25 396.186 339.204 398.317 336.957C400.448 334.71 403.337 333.446 406.351 333.443H663.633C666.647 333.446 669.536 334.71 671.667 336.957C673.798 339.204 674.997 342.25 675 345.427V420.93C674.997 424.108 673.798 427.154 671.667 429.401C669.536 431.647 666.647 432.911 663.633 432.914H465.048C464.417 432.915 463.794 433.054 463.217 433.321C462.64 433.589 462.122 433.98 461.696 434.469L424.116 477.692C423.798 478.06 423.412 478.354 422.98 478.555C422.549 478.756 422.083 478.861 421.611 478.861C421.185 478.861 420.763 478.777 420.366 478.613V478.613Z" fill="white"/>
<path d="M420.366 478.613C419.724 478.353 419.172 477.893 418.784 477.295C418.396 476.697 418.189 475.988 418.192 475.263V437.709C418.191 436.438 417.711 435.219 416.859 434.32C416.006 433.422 414.85 432.916 413.645 432.914H406.351C403.337 432.911 400.448 431.647 398.317 429.401C396.186 427.154 394.987 424.108 394.984 420.93V345.427C394.987 342.25 396.186 339.204 398.317 336.957C400.448 334.71 403.337 333.446 406.351 333.443H663.633C666.647 333.446 669.536 334.71 671.667 336.957C673.798 339.204 674.997 342.25 675 345.427V420.93C674.997 424.108 673.798 427.154 671.667 429.401C669.536 431.647 666.647 432.911 663.633 432.914H465.048C464.417 432.915 463.794 433.054 463.217 433.321C462.64 433.589 462.122 433.98 461.696 434.469L424.116 477.692C423.798 478.06 423.412 478.354 422.98 478.555C422.549 478.756 422.083 478.861 421.611 478.861C421.185 478.861 420.763 478.777 420.366 478.613V478.613ZM406.351 335.04C403.739 335.043 401.234 336.138 399.387 338.086C397.54 340.033 396.501 342.673 396.498 345.427V420.93C396.501 423.684 397.54 426.325 399.387 428.272C401.234 430.219 403.739 431.314 406.351 431.318H413.645C415.252 431.32 416.793 431.994 417.929 433.192C419.066 434.39 419.705 436.015 419.707 437.709V475.263C419.707 475.665 419.822 476.058 420.038 476.391C420.254 476.723 420.559 476.979 420.915 477.125C421.271 477.271 421.66 477.3 422.032 477.209C422.404 477.117 422.741 476.91 422.999 476.613L460.579 433.39C461.148 432.738 461.838 432.217 462.607 431.86C463.377 431.503 464.207 431.319 465.048 431.318H663.633C666.245 431.314 668.75 430.219 670.597 428.272C672.444 426.324 673.482 423.684 673.485 420.93V345.427C673.482 342.673 672.444 340.033 670.597 338.086C668.75 336.138 666.245 335.043 663.633 335.04H406.351Z" fill="#3F3D56"/>
<path d="M340.174 501.994C329.623 509.116 317.399 513.001 304.872 513.211C292.345 513.421 280.01 509.949 269.25 503.183C271.143 499.468 273.541 496.065 276.369 493.083C280.732 488.461 286.042 484.955 291.891 482.834C297.74 480.714 303.972 480.035 310.108 480.85C316.245 481.665 322.123 483.952 327.29 487.536C332.457 491.119 336.776 495.904 339.916 501.522C339.999 501.674 340.09 501.834 340.174 501.994Z" fill="#6C63FF"/>
<path d="M301.75 463.811C320.238 463.811 335.225 448.01 335.225 428.519C335.225 409.027 320.238 393.226 301.75 393.226C283.263 393.226 268.275 409.027 268.275 428.519C268.275 448.01 283.263 463.811 301.75 463.811Z" fill="#2F2E41"/>
<path d="M326.659 453.412C333.259 440.683 328.822 424.722 316.748 417.764C304.674 410.805 289.536 415.484 282.936 428.213C276.336 440.942 280.774 456.902 292.847 463.861C304.921 470.819 320.059 466.141 326.659 453.412Z" fill="#FFB8B8"/>
<path d="M278.618 424.29C284.311 428.428 291.069 430.629 297.984 430.6C295.517 432.403 292.709 433.621 289.753 434.17C298.947 436.249 308.448 436.306 317.663 434.335C319.712 433.989 321.688 433.274 323.506 432.22C324.412 431.686 325.201 430.958 325.822 430.082C326.444 429.206 326.883 428.202 327.112 427.135C327.725 423.447 324.999 420.096 322.166 417.838C317.829 414.433 312.828 412.087 307.526 410.97C302.223 409.853 296.752 409.992 291.507 411.378C288.082 412.312 284.651 413.889 282.426 416.789C280.202 419.688 279.543 424.159 281.662 427.145L278.618 424.29Z" fill="#2F2E41"/>
<path d="M303.799 514.018C287.405 514.013 271.562 507.776 259.177 496.451C246.792 485.126 238.694 469.474 236.37 452.364C234.046 435.254 237.651 417.834 246.524 403.3C255.397 388.766 268.943 378.091 284.677 373.235C300.411 368.379 317.278 369.667 332.184 376.862C347.09 384.057 359.037 396.677 365.831 412.407C372.626 428.137 373.813 445.923 369.175 462.501C364.538 479.08 354.386 493.34 340.583 502.665C329.606 510.086 316.839 514.026 303.799 514.018V514.018ZM303.799 371.894C290.616 371.893 277.729 376.013 266.768 383.734C255.806 391.455 247.262 402.43 242.217 415.27C237.171 428.11 235.851 442.24 238.422 455.872C240.994 469.503 247.342 482.025 256.664 491.853C265.985 501.681 277.862 508.373 290.791 511.085C303.721 513.796 317.123 512.404 329.302 507.084C341.481 501.765 351.89 492.757 359.214 481.2C366.537 469.643 370.445 456.056 370.444 442.158C370.424 423.529 363.396 405.669 350.902 392.497C338.408 379.325 321.468 371.915 303.799 371.894V371.894Z" fill="#3F3D56"/>
<path d="M426.992 365.951C432.485 365.951 436.938 361.256 436.938 355.464C436.938 349.673 432.485 344.978 426.992 344.978C421.499 344.978 417.045 349.673 417.045 355.464C417.045 361.256 421.499 365.951 426.992 365.951Z" fill="#6C63FF"/>
<path d="M656.156 413.49H422.082C421.384 413.491 420.694 413.347 420.05 413.067C419.405 412.786 418.82 412.374 418.326 411.855C417.833 411.335 417.442 410.718 417.175 410.039C416.908 409.36 416.771 408.633 416.771 407.898C416.771 407.163 416.908 406.435 417.175 405.756C417.442 405.077 417.833 404.46 418.326 403.94C418.82 403.421 419.405 403.009 420.05 402.728C420.694 402.448 421.384 402.304 422.082 402.305H656.156C657.563 402.305 658.912 402.894 659.907 403.943C660.901 404.992 661.46 406.414 661.46 407.898C661.46 409.381 660.901 410.803 659.907 411.852C658.912 412.901 657.563 413.49 656.156 413.49Z" fill="#E6E6E6"/>
<path d="M579.899 389.721H422.082C421.384 389.721 420.694 389.577 420.05 389.297C419.405 389.016 418.82 388.604 418.326 388.085C417.833 387.565 417.442 386.949 417.175 386.27C416.908 385.591 416.771 384.863 416.771 384.128C416.771 383.393 416.908 382.665 417.175 381.986C417.442 381.307 417.833 380.69 418.326 380.171C418.82 379.651 419.405 379.239 420.05 378.959C420.694 378.678 421.384 378.534 422.082 378.535H579.899C581.305 378.537 582.653 379.127 583.646 380.175C584.64 381.224 585.198 382.646 585.198 384.128C585.198 385.61 584.64 387.031 583.646 388.08C582.653 389.129 581.305 389.719 579.899 389.721V389.721Z" fill="#E6E6E6"/>
<path d="M420.045 485.761C430.294 485.761 438.603 484.789 438.603 483.589C438.603 482.39 430.294 481.418 420.045 481.418C409.796 481.418 401.488 482.39 401.488 483.589C401.488 484.789 409.796 485.761 420.045 485.761Z" fill="#F2F2F2"/>
<path d="M254.191 230.257C264.44 230.257 272.749 229.285 272.749 228.086C272.749 226.887 264.44 225.914 254.191 225.914C243.942 225.914 235.634 226.887 235.634 228.086C235.634 229.285 243.942 230.257 254.191 230.257Z" fill="#F2F2F2"/>
</svg>
