<svg width="31" height="34" viewBox="0 0 31 34" fill="none" xmlns="http://www.w3.org/2000/svg">
<path d="M15.3601 0C6.87804 0 0 6.87684 0 15.3601C0 22.1466 4.40112 27.9043 10.5042 29.9353C11.2718 30.0775 11.5537 29.6021 11.5537 29.1964C11.5537 28.8301 11.5393 27.6202 11.5328 26.3368C7.25964 27.2658 6.35796 24.5244 6.35796 24.5244C5.6592 22.749 4.6524 22.2768 4.6524 22.2768C3.25884 21.3235 4.75752 21.3432 4.75752 21.3432C6.29988 21.4514 7.11204 22.926 7.11204 22.926C8.48208 25.2742 10.7054 24.5953 11.5819 24.2028C11.7198 23.2102 12.1178 22.5324 12.5572 22.1489C9.14544 21.7606 5.559 20.4434 5.559 14.5579C5.559 12.8809 6.159 11.5106 7.14156 10.435C6.98208 10.0481 6.45636 8.48592 7.29036 6.37008C7.29036 6.37008 8.58024 5.95728 11.5156 7.9446C12.7408 7.60428 14.0548 7.43364 15.3601 7.42776C16.6655 7.43364 17.9806 7.60416 19.208 7.9446C22.1398 5.9574 23.4278 6.3702 23.4278 6.3702C24.2639 8.4858 23.7379 10.0482 23.5784 10.435C24.5633 11.5106 25.1592 12.8809 25.1592 14.5579C25.1592 20.4575 21.5659 21.7565 18.1456 22.1368C18.6965 22.6134 19.1874 23.5482 19.1874 24.9812C19.1874 27.0364 19.1696 28.6904 19.1696 29.1964C19.1696 29.6052 19.4461 30.0841 20.2247 29.9332C26.3244 27.9 30.72 22.1444 30.72 15.3602C30.72 6.87684 23.8429 0 15.3601 0ZM5.75292 21.8808C5.71908 21.9571 5.59896 21.98 5.48964 21.9276C5.37816 21.8776 5.31564 21.7735 5.35164 21.697C5.38476 21.6184 5.50512 21.5964 5.61624 21.6491C5.72784 21.6992 5.79144 21.8042 5.75292 21.8808ZM6.50844 22.555C6.43524 22.6229 6.29196 22.5913 6.19476 22.484C6.09432 22.377 6.07548 22.2337 6.14976 22.1648C6.22536 22.0969 6.3642 22.1287 6.46488 22.2358C6.56544 22.3441 6.58488 22.4863 6.50844 22.555ZM7.02684 23.4175C6.93264 23.4829 6.7788 23.4216 6.68364 23.285C6.58956 23.1485 6.58956 22.9847 6.68568 22.919C6.78108 22.8534 6.93264 22.9124 7.029 23.048C7.12284 23.1869 7.12284 23.3507 7.02672 23.4176L7.02684 23.4175ZM7.90332 24.4165C7.8192 24.5094 7.6398 24.4844 7.50852 24.3577C7.37424 24.2339 7.33692 24.0582 7.4214 23.9653C7.5066 23.8722 7.68696 23.8984 7.8192 24.0241C7.9524 24.1477 7.9932 24.3247 7.90332 24.4165ZM9.03636 24.7537C8.99916 24.8741 8.82636 24.9288 8.65248 24.8777C8.47872 24.825 8.36508 24.6841 8.40012 24.5626C8.43624 24.4414 8.60976 24.3845 8.78496 24.4392C8.95848 24.4915 9.07248 24.6314 9.03636 24.7538V24.7537ZM10.3256 24.8969C10.33 25.0235 10.1825 25.1285 9.99984 25.1309C9.81624 25.135 9.66756 25.0325 9.66552 24.9077C9.66552 24.7799 9.80976 24.6758 9.99348 24.6727C10.1761 24.6691 10.3256 24.7709 10.3256 24.8969V24.8969ZM11.5922 24.8483C11.6141 24.9719 11.4872 25.0988 11.3058 25.1327C11.1276 25.1652 10.9625 25.0889 10.9398 24.9664C10.9177 24.8396 11.047 24.7127 11.2249 24.6799C11.4066 24.6484 11.5691 24.7226 11.5922 24.8483Z" fill="#161614"/>
</svg>
