<svg width="30" height="32" viewBox="0 0 30 32" fill="none" xmlns="http://www.w3.org/2000/svg">
<path d="M15 2.70281C19.0051 2.70281 19.4795 2.71805 21.0612 2.79012C22.5237 2.85691 23.318 3.10125 23.8466 3.30668C24.5467 3.57879 25.0464 3.90387 25.5712 4.42875C26.0962 4.95363 26.4212 5.45332 26.6933 6.1534C26.8988 6.68203 27.1431 7.47633 27.2099 8.93871C27.282 10.5205 27.2972 10.9949 27.2972 15C27.2972 19.0052 27.282 19.4796 27.2099 21.0613C27.1431 22.5238 26.8988 23.318 26.6933 23.8466C26.4212 24.5467 26.0961 25.0465 25.5712 25.5714C25.0464 26.0962 24.5467 26.4213 23.8466 26.6933C23.318 26.8988 22.5237 27.1432 21.0612 27.2099C19.4797 27.2821 19.0054 27.2973 15 27.2973C10.9945 27.2973 10.5202 27.2821 8.93871 27.2099C7.47621 27.1431 6.68203 26.8988 6.1534 26.6933C5.45332 26.4213 4.95352 26.0962 4.42863 25.5714C3.90375 25.0464 3.57867 24.5467 3.30668 23.8466C3.10125 23.3181 2.8568 22.5238 2.79012 21.0613C2.71793 19.4796 2.7027 19.0052 2.7027 15C2.7027 10.9949 2.71793 10.5205 2.79012 8.93883C2.85691 7.47633 3.10125 6.68203 3.30668 6.1534C3.57867 5.45332 3.90375 4.95363 4.42863 4.42875C4.95363 3.90375 5.45332 3.57879 6.1534 3.30668C6.68191 3.10125 7.47621 2.85691 8.93871 2.79012C10.5204 2.71805 10.9948 2.70281 15 2.70281V2.70281ZM15 0C10.9262 0 10.4154 0.0172266 8.81555 0.0902344C7.21887 0.163125 6.12844 0.416719 5.17441 0.7875C4.18793 1.17082 3.35145 1.68375 2.51754 2.51766C1.68363 3.35156 1.17082 4.18805 0.7875 5.17441C0.416602 6.12855 0.163125 7.21898 0.0902344 8.81555C0.0172266 10.4154 0 10.9262 0 15C0 19.0738 0.0172266 19.5846 0.0902344 21.1845C0.163125 22.7811 0.416602 23.8716 0.7875 24.8256C1.1707 25.812 1.68363 26.6486 2.51754 27.4825C3.35145 28.3164 4.18793 28.8292 5.17441 29.2125C6.12855 29.5834 7.21887 29.8369 8.81543 29.9098C10.4154 29.9828 10.9262 30 15 30C19.0738 30 19.5846 29.9828 21.1845 29.9098C22.781 29.8369 23.8714 29.5834 24.8255 29.2125C25.812 28.8293 26.6484 28.3164 27.4823 27.4825C28.3163 26.6486 28.8292 25.8121 29.2125 24.8256C29.5833 23.8714 29.8369 22.7811 29.9098 21.1846C29.9828 19.5846 30 19.0738 30 15C30 10.9262 29.9828 10.4154 29.9098 8.81555C29.8369 7.21898 29.5833 6.12855 29.2125 5.17453C28.8292 4.18805 28.3163 3.35156 27.4823 2.51766C26.6484 1.68375 25.812 1.1707 24.8256 0.7875C23.8714 0.416719 22.781 0.163125 21.1845 0.0902344C19.5846 0.0172266 19.0738 0 15 0ZM15 7.29727C10.7459 7.29727 7.29727 10.7461 7.29727 15C7.29727 19.2541 10.7459 22.7027 15 22.7027C19.254 22.7027 22.7027 19.2541 22.7027 15C22.7027 10.746 19.254 7.29727 15 7.29727V7.29727ZM15 20C12.2386 20 9.99996 17.7614 9.99996 15C9.99996 12.2386 12.2386 9.99996 15 9.99996C17.7614 9.99996 20 12.2386 20 15C20 17.7614 17.7614 20 15 20ZM24.807 6.99293C24.807 7.98715 24.0012 8.79293 23.007 8.79293C22.0129 8.79293 21.207 7.98715 21.207 6.99293C21.207 5.99883 22.0129 5.19293 23.007 5.19293C24.0012 5.19293 24.807 5.99883 24.807 6.99293V6.99293Z" fill="#0A0A08"/>
</svg>
