<svg width="33" height="32" viewBox="0 0 33 32" fill="none" xmlns="http://www.w3.org/2000/svg">
<path d="M31.3443 30.0001C32.2586 30.0001 33 29.2588 33 28.3444V1.65574C33 0.741211 32.2586 0 31.3443 0H4.65574C3.74109 0 3 0.741211 3 1.65574V28.3444C3 29.2588 3.74109 30.0001 4.65574 30.0001H31.3443" fill="#395185"/>
<path d="M23.6993 30.0001V18.3825H27.5989L28.1828 13.8549H23.6993V10.9641C23.6993 9.65327 24.0634 8.75995 25.9432 8.75995L28.3407 8.7589V4.70948C27.9259 4.65429 26.5028 4.53101 24.8471 4.53101C21.3904 4.53101 19.0239 6.64097 19.0239 10.5159V13.8549H15.1143V18.3825H19.0239V30.0001H23.6993" fill="white"/>
</svg>
