<svg width="304" height="304" viewBox="0 0 304 304" fill="none" xmlns="http://www.w3.org/2000/svg">
<g clip-path="url(#clip0_65_147)">
<path d="M304 151.856C304.02 169.148 301.077 186.317 295.299 202.617C295.273 202.693 295.248 202.762 295.219 202.837V202.841C290.892 214.968 285.032 226.493 277.781 237.137C276.524 238.991 275.223 240.815 273.878 242.608C272.397 244.592 270.87 246.537 269.296 248.441C267.845 250.198 266.355 251.921 264.826 253.61C263.01 255.623 261.14 257.584 259.216 259.493C254.687 263.999 249.878 268.216 244.817 272.118C243.929 272.806 243.031 273.483 242.124 274.148C240.012 275.707 237.857 277.209 235.661 278.657C230.83 281.848 225.819 284.757 220.652 287.372C219.761 287.826 218.862 288.273 217.959 288.706C214.468 290.391 210.905 291.941 207.272 293.356C206.236 293.763 205.196 294.156 204.145 294.535C203.969 294.604 203.792 294.669 203.611 294.73C191.153 299.222 178.157 302.058 164.958 303.163C164.041 303.246 163.122 303.316 162.203 303.372C161.228 303.441 160.252 303.496 159.275 303.538C158.502 303.578 157.733 303.607 156.957 303.628C156.798 303.636 156.636 303.643 156.477 303.643C155.433 303.675 154.386 303.696 153.336 303.704C152.891 303.708 152.447 303.711 152 303.711C151.79 303.711 151.581 303.711 151.371 303.708C148.342 303.697 145.336 303.598 142.353 303.412C142.291 303.408 142.23 303.401 142.168 303.401C141.1 303.329 140.035 303.253 138.973 303.16C135.193 302.842 131.454 302.385 127.756 301.789C126.903 301.655 126.054 301.511 125.207 301.356C121.527 300.707 117.897 299.924 114.314 299.008C113.249 298.737 112.19 298.455 111.137 298.16C96.4962 294.085 82.5547 287.828 69.7825 279.598C67.5873 278.188 65.4331 276.721 63.3198 275.198C63.0598 275.018 62.8035 274.83 62.5471 274.642C57.4136 270.903 52.5191 266.847 47.8923 262.498C45.7008 260.442 43.573 258.321 41.509 256.135C14.8016 227.978 -0.0584139 190.647 -0.000318579 151.856C-0.000318579 67.9888 68.0531 0 152 0C235.946 0 304 67.9888 304 151.856Z" fill="#F2F2F2"/>
<path d="M170.543 38.7133C173.587 33.6845 177.193 28.3154 182.841 26.6733C189.381 24.7718 196.1 28.5493 201.799 32.2769C218.842 43.4251 235.255 55.5065 250.963 68.4659L250.946 68.6611C238.717 67.8186 226.488 66.9761 214.259 66.1336C205.423 65.5248 196.284 64.8321 188.476 60.6564C185.513 59.0719 182.625 56.9552 179.268 56.8078C175.096 56.6245 171.459 59.535 168.601 62.5758C151.693 80.563 146.801 108.07 127.832 123.873C139.793 94.4029 154.075 65.927 170.543 38.7133Z" fill="white"/>
<path d="M66.6149 191.278C68.4846 188.919 69.2486 188.366 71.0929 185.986C86.1099 166.582 100.225 146.523 113.437 125.808C122.412 111.74 130.941 97.4008 139.025 82.7919C142.874 75.8466 146.618 68.8468 150.255 61.7925C153.078 56.3228 155.838 50.8204 158.535 45.2853C159.306 43.7043 160.056 42.1161 160.801 40.5242C162.558 36.7809 164.283 33.0193 166.134 29.3268C168.244 25.1182 170.813 20.7061 174.687 17.8785C176.45 16.5389 178.559 15.7284 180.766 15.5416C183.92 15.3381 186.83 16.6392 189.566 18.0603C209.581 28.4872 228.319 41.5601 245.268 56.4355C262.26 71.3443 277.448 88.1878 290.522 106.622C290.922 107.193 291.868 106.648 291.464 106.074C289.875 103.828 288.253 101.606 286.601 99.4082C272.885 81.1713 257.066 64.6118 239.473 50.0717C230.762 42.8715 221.642 36.1816 212.157 30.0355C207.329 26.9099 202.411 23.931 197.402 21.0986C194.877 19.6703 192.341 18.2601 189.762 16.9373C187.234 15.6398 184.549 14.4731 181.661 14.4295C171.831 14.2769 166.742 25.398 163.246 32.8812C162.147 35.2363 161.035 37.5841 159.91 39.9246C155.658 48.8106 151.241 57.6154 146.661 66.3391C143.835 71.7253 140.946 77.0799 137.996 82.403C128.814 98.9793 119.055 115.22 108.719 131.125C95.0261 152.194 81.4425 170.805 65.8436 190.507C65.4143 191.052 66.1818 191.83 66.6149 191.278Z" fill="white"/>
<path d="M121.017 102.842L106.373 97.4906L99.1015 94.8336C96.7334 93.9683 94.371 92.9832 91.923 92.3636C89.7586 91.8158 87.5594 91.7262 85.4255 92.4463C83.5428 93.1426 81.8193 94.2099 80.3577 95.5849C78.8645 96.9586 77.4751 98.441 76.201 100.02C74.618 101.92 73.0583 103.841 71.4916 105.755C65.0257 113.655 58.602 121.59 52.2206 129.558C45.8394 137.527 39.5008 145.529 33.2049 153.566C26.8935 161.622 20.6257 169.711 14.4012 177.834C13.6386 178.83 12.8768 179.825 12.1156 180.821C11.695 181.372 10.7467 180.829 11.1732 180.271C17.4437 172.066 23.7578 163.895 30.1156 155.757C36.4891 147.6 42.9066 139.477 49.3681 131.389C55.8296 123.301 62.3346 115.248 68.8834 107.23C70.5149 105.233 72.149 103.238 73.7859 101.245C75.1667 99.5634 76.5319 97.864 78.0463 96.2992C80.8262 93.4269 84.2994 90.8885 88.4568 90.8196C90.9011 90.7791 93.2667 91.554 95.5377 92.3748C97.986 93.2597 100.428 94.1611 102.874 95.0546L117.621 100.443L121.307 101.79C121.962 102.03 121.679 103.084 121.017 102.842V102.842Z" fill="white"/>
<path d="M80.909 102.895C82.3505 101.142 83.9091 99.3066 86.0654 98.5945L88.0785 98.6738C72.754 125.727 52.0571 149.366 27.2583 168.14C45.1418 146.392 63.0254 124.643 80.909 102.895Z" fill="white"/>
<path d="M178.805 74.8863C178.806 77.6506 178.127 80.373 176.829 82.8143C175.531 85.2557 173.654 87.3414 171.36 88.8884C169.067 90.4354 166.429 91.3963 163.677 91.6869C160.926 91.9775 158.145 91.5888 155.579 90.5549C153.012 89.5211 150.739 87.8737 148.959 85.7573C147.179 83.641 145.946 81.1205 145.369 78.417C144.791 75.7135 144.887 72.9097 145.647 70.2518C146.408 67.5939 147.809 65.163 149.73 63.1727C149.757 63.1457 149.784 63.1188 149.811 63.0917C149.946 62.9498 150.081 62.808 150.223 62.6728C150.224 62.6728 150.225 62.6727 150.226 62.6723C150.227 62.672 150.228 62.6715 150.228 62.6709C150.229 62.6702 150.229 62.6695 150.23 62.6687C150.23 62.6678 150.23 62.667 150.23 62.6661C150.406 62.5039 150.582 62.3418 150.764 62.1865C153.207 60.047 156.215 58.6562 159.428 58.1806C162.642 57.705 165.924 58.1647 168.883 59.5047C171.841 60.8446 174.351 63.0081 176.11 65.7361C177.87 68.4641 178.805 71.6409 178.805 74.8862V74.8863Z" fill="#2F2E41"/>
<path d="M167.759 88.8072C173.295 83.2769 173.295 74.3105 167.759 68.7802C162.223 63.2499 153.249 63.2499 147.713 68.7802C142.177 74.3105 142.177 83.2769 147.713 88.8072C153.249 94.3375 162.223 94.3375 167.759 88.8072Z" fill="#9E616A"/>
<path d="M167.864 65.1753C165.668 63.1224 162.937 61.7301 159.984 61.1584C157.032 60.5867 153.978 60.8588 151.173 61.9435C151.09 61.9759 151.007 62.012 150.924 62.0517C150.92 62.0517 150.92 62.0553 150.917 62.0553C150.646 62.1671 150.371 62.2825 150.108 62.4088L149.945 62.4881V62.5098C149.917 62.5314 149.884 62.5566 149.852 62.5783C149.785 62.6401 149.705 62.6847 149.617 62.7081C146.891 62.7442 144.671 63.6676 143.024 65.4531C140.825 67.8337 139.793 71.6824 140.111 76.2922L140.118 76.4329L140.241 76.5122C141.403 77.2372 142.504 77.8757 143.566 78.4348C144.194 78.7702 144.804 79.0768 145.411 79.3582C145.483 79.3906 145.555 79.4267 145.627 79.4592C151.765 82.2907 157.379 82.8029 162.773 81.0102L162.874 80.9777L165.167 77.1399C165.403 78.4511 166.035 79.659 166.977 80.602C167.919 81.545 169.126 82.1782 170.438 82.4169L171.392 82.5865L172.789 82.8317L172.847 82.5684C174.233 76.3283 172.229 69.3415 167.864 65.1753Z" fill="#2F2E41"/>
<path d="M202.686 94.8977C197.862 92.4103 204.066 83.3828 202.819 78.1047C201.573 72.8265 192.596 71.1289 192.024 65.736C191.452 60.343 190.107 54.7808 186.545 50.6886C184.268 48.0737 180.915 46.1433 177.461 46.4708C176.293 46.5816 175.162 46.9427 174.146 47.5295C173.13 48.1162 172.253 48.9149 171.573 49.871C170.894 50.8272 170.429 51.9183 170.21 53.0702C169.991 54.2221 170.023 55.4076 170.304 56.546C169.32 55.1543 166.776 55.4559 166.146 57.039C165.586 58.4463 166.823 60.1511 168.279 60.2756C170.184 62.6256 172.365 65.1196 175.349 65.5937C176.31 65.7464 177.391 65.6345 178.093 64.961C178.795 64.2875 178.849 62.9409 178.017 62.4375C181.767 63.9258 183.965 67.9766 184.522 71.9694C185.078 75.9622 184.308 80.0021 183.801 84.0015C183.294 88.0008 183.075 92.208 184.645 95.9218C186.499 100.31 190.769 103.455 195.429 104.463C200.088 105.472 205.051 104.486 209.268 102.265C213.486 100.044 217.003 96.6539 219.876 92.8528C214.927 96.3638 208.08 97.6792 202.686 94.8977Z" fill="#2F2E41"/>
<path d="M147.882 154.382L138.091 221.176L191.536 217.151L175.539 151.442L147.882 154.382Z" fill="#FFB8B8"/>
<path d="M203.792 294.048C203.745 294.279 203.684 294.506 203.612 294.73C197.444 296.958 191.136 298.778 184.729 300.18C183.379 295.743 180.79 287.343 178.523 280.471C176.67 274.862 175.035 270.274 174.464 269.701C172.879 268.125 174.464 266.022 174.464 266.022L167.695 244.996L164.619 235.445L163.565 255.511L162.034 284.576L161.99 285.391C161.99 285.391 159.882 291.7 160.936 292.753C161.99 293.807 159.882 298.016 159.882 298.016L159.275 303.538C158.503 303.578 157.734 303.607 156.957 303.628L156.694 303.711L156.477 303.643C155.434 303.675 154.387 303.696 153.336 303.704C152.892 303.708 152.448 303.711 152 303.711C151.791 303.711 151.581 303.711 151.372 303.708C148.343 303.697 145.337 303.598 142.353 303.412L140.501 288.353L138.587 272.792C138.587 272.792 140.692 268.59 138.587 266.487C137.32 265.221 137.956 263.381 138.667 262.119C138.226 260.167 137.623 257.166 136.811 252.723C136.782 252.575 136.757 252.423 136.728 252.272C136.472 250.861 136.242 249.479 136.038 248.124C135.677 245.739 135.396 243.449 135.179 241.256C134.444 234.153 134.343 226.998 134.876 219.877C135.078 217.345 135.331 215.491 135.497 214.42C135.511 214.319 135.667 213.752 135.919 212.858C136.316 211.426 136.97 209.153 137.703 206.61C138.093 205.261 138.504 203.837 138.912 202.419C139.624 199.963 140.331 197.528 140.902 195.558V195.548C141.404 193.82 141.804 192.456 142.014 191.742C142.115 191.392 142.169 191.201 142.169 191.201C142.169 191.201 142.281 191.176 142.494 191.129C143.155 190.977 144.787 190.613 147.047 190.126C149.404 189.628 152.441 188.997 155.777 188.355C158.633 187.807 161.709 187.248 164.767 186.746C165.864 186.57 166.962 186.397 168.045 186.234C174.735 185.239 180.877 184.672 183.787 185.318C183.988 185.361 184.187 185.415 184.382 185.48C184.58 185.546 184.77 185.631 184.949 185.736C185.04 185.791 185.913 189.196 187.029 193.632C187.04 193.676 187.051 193.722 187.061 193.766C187.397 195.108 187.755 196.536 188.119 197.997C188.491 199.486 188.867 201.005 189.235 202.484C190.329 206.877 191.34 210.942 191.86 212.933C192.058 213.705 192.188 214.163 192.217 214.214C193.437 216.245 194.434 221.222 195.243 227.466C195.965 233.039 196.539 239.622 196.983 246.017C197.203 249.18 197.391 252.301 197.55 255.229C198.088 265.084 198.304 272.778 198.304 272.778C198.304 272.778 199.109 279.191 200.709 282.217C200.906 282.608 201.157 282.969 201.456 283.288C202.521 284.353 202.644 285.276 202.503 285.932C202.442 286.242 202.314 286.535 202.128 286.791C202.086 286.853 202.039 286.913 201.987 286.968C201.849 287.62 201.874 288.297 202.057 288.938C202.241 289.579 202.579 290.166 203.041 290.647C204.063 291.675 203.98 293.146 203.792 294.048Z" fill="#2F2E41"/>
<path d="M186.285 132.959C186.224 132.504 186.159 132.046 186.09 131.584C186.05 131.288 186.003 130.993 185.96 130.701C185.501 127.75 187.411 125.225 184.938 123.184C184.36 122.713 183.889 122.126 183.555 121.459L182.989 120.32L181.945 118.206L179.663 113.61L179.27 112.821C179.158 112.596 179.03 112.38 178.887 112.175C178.46 111.556 177.905 111.037 177.259 110.653L171.59 107.277C170.714 106.757 170.009 105.994 169.561 105.08L169.42 104.791C168.796 103.511 167.677 100.448 166.352 99.1175L166.348 99.1138C166.059 98.784 165.667 98.5616 165.236 98.4826L159.593 97.9235C158.69 97.8319 157.78 97.9762 156.95 98.3424C156.12 98.7085 155.4 99.2839 154.86 100.012L154.704 100.715L153.798 104.838L153.748 104.849C153.48 104.91 153.213 104.972 152.95 105.047C147.097 106.645 144.656 127.086 144.656 127.086C144.656 127.086 140.559 133.842 142.169 138.023L145.043 144.764C145.065 144.815 145.082 144.869 145.093 144.923C145.353 145.657 145.444 146.44 145.36 147.214L145.364 147.477L145.371 148.058L145.393 149.547L145.462 154.489L145.548 160.675L145.624 165.945L145.649 167.348L140.916 187.926C140.838 188.602 140.895 189.287 141.083 189.941C141.271 190.595 141.586 191.206 142.01 191.739L142.014 191.742C142.118 191.875 142.228 192.003 142.346 192.125L142.349 192.128C142.461 192.244 142.577 192.348 142.696 192.453C143.266 192.951 143.938 193.319 144.665 193.53C145.393 193.741 146.157 193.791 146.906 193.676L147.538 193.578H147.541L156.712 192.204H156.719L157.78 192.045H157.788L168.052 190.505H168.059L169.818 190.238C169.958 190.22 170.096 190.202 170.236 190.191L179.634 189.546C179.85 189.531 180.065 189.503 180.277 189.463H180.281C181.107 189.299 181.882 188.94 182.54 188.414C183.198 187.889 183.719 187.213 184.061 186.444C184.203 186.135 184.311 185.812 184.382 185.48C184.464 185.122 184.508 184.755 184.516 184.388L184.62 175.543L184.978 146.961C184.985 146.007 185.258 145.075 185.765 144.267C187.068 142.189 186.92 137.738 186.285 132.959Z" fill="#FCBA04"/>
<path d="M170.528 209.295C170.395 208.566 170.425 207.817 170.614 207.101C170.803 206.384 171.146 205.718 171.621 205.149C172.096 204.58 172.689 204.121 173.36 203.806C174.031 203.491 174.763 203.326 175.505 203.324L181.368 186.296L187.085 193.709L180.641 208.743C180.561 209.987 180.028 211.16 179.141 212.038C178.255 212.916 177.076 213.439 175.83 213.507C174.583 213.575 173.355 213.184 172.378 212.407C171.4 211.631 170.742 210.524 170.528 209.295H170.528Z" fill="#9E616A"/>
<path d="M192.899 173.469L191.581 176.787L189.74 197.315C189.168 197.459 188.621 197.688 188.119 197.997C187.027 198.671 186.196 199.695 185.76 200.901C185.324 202.107 185.309 203.425 185.718 204.641L186.26 206.264L182.234 205.027L175.616 202.996L167.814 200.601L169.135 196.319C169.441 195.336 169.503 194.292 169.315 193.28C169.128 192.267 168.697 191.314 168.059 190.505C167.901 190.304 167.731 190.112 167.55 189.931L168.045 186.234L168.337 184.038L164.767 186.746L157.784 192.045H157.78L156.856 192.749C156.856 192.749 156.806 192.561 156.712 192.204C156.535 191.515 156.203 190.195 155.777 188.355C153.667 179.188 152.113 169.903 151.123 160.549C150.906 158.442 150.718 156.285 150.567 154.096C150.411 151.841 150.296 149.554 150.235 147.253C149.715 128.522 152.596 108.885 164.637 98.8433C165.219 98.8473 165.797 98.9397 166.352 99.1174C171.226 100.614 176.573 107.929 180.27 113.163C181.144 114.4 181.923 115.519 182.584 116.417L184.184 118.592C186.367 121.564 187.879 124.974 188.614 128.587C188.769 129.351 188.89 130.126 188.978 130.91L190.726 146.968V151.105L192.899 173.469Z" fill="#FCBA04"/>
<path d="M8.80566 202.256C11.9422 205.969 15.3346 209.458 18.9583 212.698L285.258 213.059C288.882 209.819 292.274 206.329 295.411 202.617L8.80566 202.256Z" fill="#CCCCCC"/>
<path d="M153.336 303.704C152.892 303.708 152.448 303.712 152 303.712C151.791 303.712 151.581 303.712 151.372 303.708C148.343 303.697 145.336 303.599 142.353 303.412L142.425 304L142.169 303.401L136.446 290.091L140.501 288.353L147.938 285.161L150.195 292.912L152.354 300.335L152.997 302.536L153.336 303.704Z" fill="#FFB6B6"/>
<path d="M126.824 288.252L125.207 301.356C121.528 300.707 117.897 299.924 114.314 299.008V288.255L126.824 288.252Z" fill="#FFB6B6"/>
<path d="M69.783 264.099V279.599C67.5879 278.188 65.4336 276.721 63.3203 275.198V264.099H69.783Z" fill="#CACACA"/>
<path d="M94.8212 261.516V269.261C94.8208 270.687 94.2536 272.055 93.2443 273.064C92.2349 274.073 90.8659 274.641 89.438 274.642H62.5474C57.4138 270.903 52.5194 266.847 47.8926 262.498C45.701 260.442 43.5733 258.321 41.5093 256.135H89.438C90.8658 256.137 92.2345 256.704 93.2437 257.713C94.2529 258.722 94.8203 260.09 94.8212 261.516Z" fill="#3F3D56"/>
<path d="M157.842 303.347L156.957 303.628L156.693 303.711L156.477 303.643C155.433 303.675 154.386 303.696 153.336 303.704C152.892 303.708 152.448 303.711 152 303.711C151.79 303.711 151.581 303.711 151.372 303.708C148.342 303.697 145.336 303.598 142.353 303.412L142.425 304L142.169 303.401C141.1 303.329 140.035 303.253 138.973 303.16L130.572 289.103L113.281 260.178L111.278 256.827C111.278 256.827 104.443 258.847 94.7706 260.784C87.4811 262.249 78.5813 263.659 69.7826 264.121C67.6128 264.236 65.4501 264.294 63.3199 264.276C57.814 264.24 52.5247 263.724 47.8925 262.498C45.7009 260.442 43.5732 258.321 41.5092 256.135C37.9908 252.418 34.6625 248.526 31.5371 244.473C31.495 242.986 31.5711 241.498 31.7646 240.022C31.7971 239.777 31.8296 239.528 31.8693 239.276L32.8549 222.553L40.1769 221.587L51.3188 220.115L63.3885 218.521L64.7172 228.916C64.7172 228.916 74.1152 228.44 86.0225 228.599C105.147 228.858 130.738 230.763 134.204 238.937C134.529 239.705 134.854 240.48 135.179 241.256C141.909 257.361 148.09 274.52 152.289 286.712C153.09 289.034 153.816 291.173 154.462 293.092C156.596 299.43 157.842 303.347 157.842 303.347Z" fill="#2F2E41"/>
<path d="M137.371 248.152C137.194 249.682 137.007 251.205 136.811 252.723C135.078 266.144 132.692 278.964 130.572 289.103C129.536 294.052 128.561 298.359 127.756 301.789C126.904 301.655 126.054 301.511 125.207 301.356C121.528 300.707 117.897 299.924 114.314 299.008C113.249 298.737 112.19 298.455 111.137 298.16L113.282 260.178L113.989 247.615L136.038 248.124L137.371 248.152Z" fill="#2F2E41"/>
<path d="M172.823 189.404C173.743 188.891 174.764 188.586 175.814 188.51C176.864 188.433 177.919 188.588 178.903 188.963C179.887 189.338 180.776 189.924 181.509 190.679C182.242 191.435 182.8 192.342 183.144 193.336L208.743 193.367L201.407 204.453L178.222 202.724C176.512 203.191 174.689 203.015 173.1 202.229C171.511 201.443 170.266 200.102 169.601 198.46C168.935 196.818 168.896 194.99 169.49 193.32C170.084 191.651 171.27 190.258 172.823 189.404L172.823 189.404Z" fill="#FFB6B6"/>
<path d="M186.78 204.397L232.884 208.973L233.006 208.817C233.238 208.52 256.317 179.007 260.194 171.981C262.58 167.76 263.449 162.851 262.657 158.068L262.63 157.951L262.538 157.874C260.658 156.3 258.297 155.413 255.844 155.359C253.392 155.305 250.994 156.088 249.047 157.578C239.682 164.824 232.132 174.145 226.991 184.805L224.074 190.873L190.24 192.323L186.78 204.397Z" fill="#FCBA04"/>
<path d="M168.998 287.567L162.203 303.373C161.229 303.441 160.253 303.496 159.275 303.538C158.503 303.578 157.734 303.607 156.957 303.629L156.694 303.712L156.477 303.643C155.434 303.676 154.387 303.696 153.336 303.704C152.892 303.708 152.448 303.712 152 303.712C151.791 303.712 151.581 303.712 151.372 303.708L151.823 302.164L152.354 300.335L154.463 293.093L157.506 282.636L162.034 284.576L168.998 287.567Z" fill="#FFB6B6"/>
<path d="M217.959 288.706C214.468 290.391 210.906 291.94 207.272 293.356L203.72 287.386L215.172 282.361L217.959 288.706Z" fill="#FFB6B6"/>
<path d="M242.124 261.574V274.148C240.012 275.707 237.858 277.209 235.662 278.657V261.574H242.124Z" fill="#CACACA"/>
<path d="M264.827 253.61C263.011 255.623 261.141 257.584 259.216 259.493C254.687 263.999 249.878 268.216 244.818 272.118H216.006C215.241 272.118 214.485 271.955 213.788 271.639C213.092 271.324 212.47 270.863 211.966 270.289L211.963 270.278C211.362 269.601 210.944 268.781 210.749 267.897L210.746 267.89C210.664 267.511 210.623 267.124 210.623 266.736V258.992C210.624 257.565 211.191 256.197 212.201 255.188C213.21 254.179 214.578 253.612 216.006 253.61H264.827Z" fill="#3F3D56"/>
<path d="M276.698 223.383L273.575 236.751C273.88 238.687 273.982 240.651 273.878 242.609C272.398 244.592 270.871 246.537 269.296 248.441C267.845 250.198 266.355 251.921 264.827 253.61C263.011 255.623 261.14 257.584 259.216 259.493C254.205 261.066 248.298 261.708 242.124 261.751C239.994 261.769 237.831 261.711 235.661 261.596C226.863 261.134 217.963 259.724 210.674 258.259C208.746 257.877 206.933 257.488 205.265 257.109C202.106 256.398 199.463 255.734 197.549 255.23C195.394 254.667 194.166 254.302 194.166 254.302L185.967 268.02L178.522 280.471L164.958 303.163C164.041 303.246 163.123 303.316 162.203 303.372C161.228 303.441 160.252 303.496 159.275 303.538C158.502 303.578 157.733 303.607 156.957 303.629L156.694 303.712L156.477 303.643L152.997 302.536L151.823 302.164L147.603 300.822C147.603 300.822 148.545 297.857 150.195 292.912C150.801 291.098 151.502 289.013 152.289 286.712C155.13 278.394 159.069 267.223 163.564 255.511C164.897 252.034 166.276 248.506 167.695 244.996C168.857 242.114 170.041 239.243 171.24 236.412C173.323 231.503 183.389 228.855 195.242 227.466C195.845 227.398 196.452 227.329 197.062 227.264C203.102 226.629 209.511 226.301 215.504 226.15C218.505 226.074 221.4 226.045 224.094 226.041C224.964 226.041 225.81 226.044 226.632 226.049H226.635C228.856 226.059 230.899 226.092 232.697 226.128C233.047 226.135 233.387 226.146 233.719 226.153H233.723C233.946 226.157 234.167 226.164 234.383 226.168C238.315 226.269 240.727 226.391 240.727 226.391L241.662 219.062L241.853 217.583L242.034 216.176V216.173L242.056 215.996L242.204 215.992L244.803 215.942L266.654 215.516L278.59 215.282L276.698 223.383Z" fill="#2F2E41"/>
<path d="M220.653 287.372C219.761 287.826 218.862 288.273 217.959 288.706C214.468 290.391 210.906 291.94 207.273 293.356C206.236 293.763 205.197 294.156 204.146 294.535C204.03 294.373 203.911 294.21 203.792 294.048C198.781 287.177 192.412 278.109 185.967 268.02C183.27 263.8 180.559 259.399 177.927 254.905L196.983 246.017L199.12 245.021L205.265 257.109L210.746 267.89L211.966 270.289L220.653 287.372Z" fill="#2F2E41"/>
<path d="M248.313 137.085C258.009 137.085 265.869 129.233 265.869 119.546C265.869 109.859 258.009 102.007 248.313 102.007C238.617 102.007 230.757 109.859 230.757 119.546C230.757 129.233 238.617 137.085 248.313 137.085Z" fill="#FFB6B6"/>
<path d="M247.732 136.324C251.837 138.291 256.889 137.625 260.808 135.31C264.727 132.995 267.611 129.22 269.626 125.142C271.102 122.155 272.174 118.734 271.32 115.514C270.465 112.295 267.055 109.597 263.86 110.551C266.049 108.79 265.794 105.159 264.025 102.977C262.257 100.796 259.467 99.7469 256.77 98.9563C252.857 97.8088 248.746 96.9989 244.71 97.5858C240.675 98.1727 236.701 100.356 234.802 103.961C233.484 104.3 232.091 104.193 230.84 103.657C229.589 103.12 228.552 102.184 227.891 100.996C227.451 102.138 227.4 103.394 227.747 104.568C228.093 105.742 228.817 106.77 229.807 107.492L224.341 104.529C222.948 106.459 224.214 109.401 226.329 110.494C228.444 111.587 231.001 111.296 233.31 110.712C235.618 110.128 232.895 114.998 235.275 115.045C237.656 115.092 240.232 116.337 240.914 118.617C241.271 119.811 241.063 121.093 241.168 122.335C241.273 123.576 241.869 124.954 243.073 125.277C243.834 125.482 244.667 125.211 245.422 125.438C246.357 125.719 246.927 126.719 247.01 127.691C247.092 128.664 246.787 129.623 246.485 130.551C245.294 134.22 249.117 132.164 247.926 135.833L247.732 136.324Z" fill="#2F2E41"/>
<path d="M282.178 188.132C282.034 173.646 281.377 163.773 280.229 158.785C277.145 145.374 262.902 142.928 260.671 142.625C260.433 141.993 260.068 141.417 259.598 140.932C259.128 140.447 258.562 140.064 257.938 139.806C257.313 139.549 256.642 139.422 255.966 139.435C255.29 139.448 254.624 139.6 254.01 139.88L243.89 144.512C241.837 145.454 239.999 146.808 238.492 148.49C236.985 150.172 235.839 152.145 235.127 154.287L233.625 158.868L232.871 189.611L235.362 202.542L235.365 202.549L237.044 211.26L235.889 212.991L229.293 222.874L229.181 223.048L229.177 223.051L228.888 223.48C229.289 223.7 229.686 223.917 230.076 224.133C231.087 224.689 232.073 225.233 233.033 225.767C233.264 225.897 233.492 226.023 233.719 226.153H233.723C233.867 226.233 234.011 226.312 234.152 226.391C237.755 228.404 241.035 230.269 243.991 231.986C244.402 232.224 244.81 232.462 245.211 232.696C258.859 240.672 265.776 245.555 269.296 248.441C270.871 246.537 272.398 244.592 273.878 242.608C275.221 240.816 276.522 238.992 277.781 237.137C278.001 235.687 278.149 234.237 278.294 232.815C278.467 231.106 278.647 229.335 278.951 227.592C279.084 226.821 278.572 226.088 278.077 225.381C277.618 224.721 277.185 224.101 277.275 223.517C277.369 222.914 278.034 222.258 278.68 221.619C279.384 220.919 280.113 220.198 280.218 219.437C280.507 217.316 280.763 215.188 280.987 213.053C281.355 209.579 281.638 206.095 281.835 202.599C282.113 197.773 282.228 192.951 282.178 188.132Z" fill="#FCBA04"/>
<path d="M215.35 239.265C215.648 238.255 216.163 237.324 216.86 236.535C217.557 235.746 218.419 235.12 219.384 234.7C220.35 234.28 221.396 234.076 222.449 234.104C223.501 234.131 224.535 234.389 225.477 234.859L243.788 216.986L246.31 230.035L228.536 245.007C227.641 246.536 226.215 247.684 224.53 248.233C222.844 248.782 221.015 248.695 219.39 247.987C217.765 247.279 216.456 246 215.711 244.393C214.967 242.785 214.838 240.961 215.35 239.265L215.35 239.265Z" fill="#FFB6B6"/>
<path d="M235.821 240.22L271.965 211.26L271.943 211.065C271.901 210.69 267.719 173.471 265.569 165.741C264.317 161.058 261.5 156.943 257.584 154.08L257.483 154.015L257.364 154.024C254.918 154.214 252.61 155.23 250.82 156.907C249.03 158.583 247.865 160.818 247.517 163.244C245.902 174.967 247.035 186.904 250.829 198.114L252.994 204.488L229.837 229.175L235.821 240.22Z" fill="#FCBA04"/>
<path d="M50.7316 136.771C59.3832 136.771 66.3967 129.764 66.3967 121.12C66.3967 112.477 59.3832 105.47 50.7316 105.47C42.0799 105.47 35.0664 112.477 35.0664 121.12C35.0664 129.764 42.0799 136.771 50.7316 136.771Z" fill="#A0616A"/>
<path d="M29.6853 240.323L29.5998 240.203C25.0366 233.821 31.8998 218.483 32.9349 216.26C31.7057 215.862 30.6528 215.05 29.9555 213.963C29.2582 212.876 28.9596 211.581 29.1106 210.299L29.5568 206.509L30.0219 202.792L26.6897 199.463L26.6803 199.38L24.7627 182.617L21.9745 171.483C20.9239 167.273 21.0135 162.861 22.2339 158.698C23.4543 154.535 25.7617 150.771 28.9192 147.793L35.364 146.771L43.1966 139.231H55.8274L60.1583 143.365C68.6729 150.338 70.6942 147.309 80.2954 160.435L73.4209 178.529L77.2635 205.217L77.2658 210.047L79.2671 212.269C79.9881 213.069 80.5119 214.027 80.7969 215.065C81.082 216.104 81.1203 217.194 80.909 218.25L80.6457 219.565C81.663 220 82.5608 220.673 83.264 221.527C83.9671 222.381 84.4552 223.39 84.6871 224.472L85.39 227.748C85.9914 228.541 89.9608 233.829 89.9608 235.274C89.9608 235.492 89.8004 235.701 89.4563 235.934C86.7512 237.764 71.7996 241.495 65.1822 238.849C58.1334 236.034 30.1132 240.258 29.8309 240.301L29.6853 240.323Z" fill="#3F3D56"/>
<path d="M21.7271 176.838L34.7523 174.29C39.5693 181.477 42.1553 201.129 42.1553 201.129L56.5561 230.966C57.4413 231.503 58.1681 232.265 58.6626 233.174C59.1571 234.084 59.4016 235.107 59.3711 236.142C59.3406 237.176 59.0364 238.184 58.4893 239.062C57.9421 239.941 57.1717 240.659 56.2565 241.143C55.3413 241.627 54.3139 241.861 53.2791 241.819C52.2442 241.778 51.2388 241.463 50.3653 240.907C49.4918 240.351 48.7814 239.574 48.3064 238.655C47.8314 237.735 47.6088 236.706 47.6613 235.673L28.8789 200.322L21.7271 176.838Z" fill="#A0616A"/>
<path d="M21.654 179.925L21.2837 160.584L27.4133 152.392C28.6225 150.788 30.2567 149.554 32.1311 148.829C34.0055 148.104 36.0455 147.917 38.0205 148.29C40.6943 148.813 43.0695 150.331 44.6658 152.537C46.2622 154.743 46.9605 157.472 46.6197 160.173C45.5793 168.363 43.2172 178.612 37.8733 180.93L37.8192 180.954L43.3577 200.305L22.8185 203.172L21.654 179.925Z" fill="#3F3D56"/>
<path d="M99.0125 178.216C99.0125 178.216 83.3812 166.01 74.9035 164.256L67.3999 175.194L87.6931 187.618L127.203 199.031C127.895 199.799 128.777 200.37 129.762 200.686C130.746 201.003 131.796 201.054 132.807 200.834C133.817 200.613 134.751 200.13 135.514 199.433C136.276 198.735 136.841 197.849 137.15 196.863C137.459 195.877 137.501 194.827 137.273 193.82C137.044 192.812 136.553 191.883 135.849 191.127C135.144 190.37 134.253 189.813 133.263 189.513C132.274 189.212 131.223 189.178 130.216 189.415L99.0125 178.216Z" fill="#A0616A"/>
<path d="M71.512 180.669L55.2219 170.212L51.8203 160.565C51.1595 158.669 51.0427 156.625 51.4831 154.666C51.9236 152.707 52.9038 150.91 54.3129 149.478C56.2361 147.55 58.8205 146.423 61.5434 146.326C64.2662 146.229 66.9245 147.168 68.9807 148.954C75.2123 154.375 83.243 156.192 82.1971 161.918L85.1973 162.356L100.539 173.997L91.492 192.64L71.512 180.669Z" fill="#3F3D56"/>
<path d="M32.9632 110.837C34.7223 108.118 38.0232 106.306 41.2232 106.816C41.521 104.775 42.3734 102.856 43.6876 101.266C45.0018 99.6762 46.7274 98.4771 48.6765 97.7993C50.6256 97.1214 52.7234 96.9908 54.7417 97.4216C56.7599 97.8524 58.6212 98.8282 60.1228 100.243C61.065 99.4937 62.4345 99.4543 63.5529 99.8997C64.6542 100.4 65.6124 101.168 66.3396 102.134C68.1758 104.422 69.3567 107.164 69.7567 110.069C70.1566 112.974 69.7606 115.933 68.6108 118.632C69.0019 117.211 67.5771 115.875 66.1375 115.556C64.698 115.237 63.1879 115.539 61.7281 115.331C59.857 115.065 58.1751 113.981 56.3011 113.737C54.7262 113.532 53.1423 113.935 51.6065 114.34C50.0706 114.744 48.4909 115.156 46.9137 114.969C45.3364 114.782 43.3047 120.754 43.332 124.96C43.3371 125.757 43.1728 126.78 42.3931 126.949C41.4329 127.158 40.8765 125.834 39.9626 125.473C39.1483 125.152 38.1722 125.747 37.8887 126.575C37.7735 126.998 37.7612 127.443 37.8527 127.872C37.9443 128.301 38.1371 128.701 38.415 129.041C38.9768 129.714 39.6437 130.292 40.3899 130.753L40.0135 131.065C39.3874 131.892 38.0887 131.927 37.1862 131.416C36.2839 130.905 35.6908 129.995 35.1563 129.107C33.4867 126.333 32.0222 123.377 31.4329 120.193C30.8437 117.01 31.2043 113.556 32.9632 110.837Z" fill="#2F2E41"/>
<path opacity="0.2" d="M170.534 137.138C172.123 143.752 172.856 150.542 172.716 157.342C172.58 164.143 171.585 170.9 169.753 177.451C168.719 181.151 167.414 184.77 165.851 188.279C165.569 188.91 166.502 189.461 166.786 188.825C169.609 182.502 171.606 175.842 172.726 169.009C173.851 162.175 174.103 155.226 173.477 148.329C173.122 144.462 172.488 140.625 171.579 136.85C171.415 136.173 170.371 136.46 170.534 137.138H170.534Z" fill="black"/>
<path opacity="0.2" d="M271.661 183.418L262.606 205.499C261.149 209.053 259.735 212.628 258.219 216.158C256.853 219.335 255.296 222.526 252.998 225.146C250.678 227.79 247.558 229.936 243.993 230.356C243.309 230.436 243.301 231.519 243.993 231.438C247.249 231.055 250.168 229.437 252.525 227.201C255.074 224.782 256.87 221.701 258.336 218.54C259.971 215.016 261.361 211.372 262.834 207.779L267.463 196.49L272.705 183.706C272.969 183.062 271.922 182.781 271.661 183.418Z" fill="black"/>
<path d="M164.333 203.461C164.492 203.923 164.794 204.324 165.195 204.604C165.596 204.885 166.076 205.032 166.566 205.023L176.13 204.777C176.624 204.767 177.1 204.598 177.49 204.296C177.879 203.993 178.16 203.572 178.29 203.097L179.643 188.638C180.123 188.855 180.646 188.962 181.173 188.952C181.631 188.94 182.082 188.839 182.501 188.653C182.92 188.467 183.298 188.201 183.613 187.869C183.929 187.538 184.176 187.147 184.341 186.72C184.506 186.293 184.584 185.838 184.573 185.38C184.561 184.923 184.46 184.472 184.274 184.054C184.088 183.636 183.822 183.258 183.49 182.943C183.158 182.627 182.767 182.38 182.339 182.216C181.912 182.051 181.456 181.973 180.998 181.984C180.788 181.983 180.577 182.005 180.371 182.049C180.147 181.807 179.875 181.614 179.572 181.484C179.269 181.353 178.942 181.287 178.612 181.291L163.899 181.67C163.777 181.675 163.655 181.69 163.536 181.715C163.213 181.775 162.907 181.904 162.638 182.092C162.37 182.28 162.144 182.524 161.978 182.806C161.811 183.088 161.707 183.403 161.672 183.729C161.637 184.055 161.673 184.385 161.777 184.696L164.333 203.461ZM179.921 187.656L180.884 184.21C180.994 183.812 180.996 183.392 180.891 182.993C180.938 182.993 180.979 182.971 181.026 182.97C181.686 182.957 182.325 183.205 182.802 183.662C183.28 184.118 183.556 184.744 183.572 185.404C183.587 186.064 183.34 186.703 182.885 187.181C182.43 187.659 181.803 187.937 181.143 187.954C180.716 187.968 180.293 187.864 179.921 187.656Z" fill="#2F2E41"/>
<path d="M163.536 181.715C163.85 183.506 167.374 184.765 171.611 184.546C175.508 184.366 178.694 182.999 179.278 181.379C179.062 181.315 178.837 181.286 178.612 181.291L163.899 181.67C163.777 181.675 163.656 181.69 163.536 181.715Z" fill="#3F3D56"/>
<path d="M132.475 183.975C132.579 183.664 132.614 183.334 132.58 183.008C132.545 182.682 132.441 182.367 132.274 182.085C132.107 181.802 131.882 181.559 131.613 181.37C131.344 181.182 131.038 181.054 130.716 180.994C130.596 180.968 130.475 180.953 130.353 180.949L115.64 180.569C115.31 180.566 114.983 180.632 114.68 180.762C114.377 180.893 114.104 181.086 113.88 181.328C113.674 181.284 113.464 181.262 113.253 181.263C112.329 181.239 111.432 181.584 110.762 182.221C110.092 182.858 109.702 183.735 109.679 184.659C109.656 185.583 110.001 186.478 110.638 187.148C111.276 187.818 112.154 188.207 113.078 188.23C113.605 188.241 114.128 188.133 114.608 187.916L115.962 202.376C116.092 202.851 116.373 203.271 116.762 203.574C117.151 203.877 117.628 204.046 118.121 204.055L127.686 204.301C128.176 204.31 128.656 204.164 129.057 203.883C129.458 203.602 129.759 203.202 129.918 202.739L132.475 183.975ZM113.109 187.233C112.449 187.216 111.822 186.938 111.367 186.459C110.911 185.981 110.664 185.342 110.68 184.683C110.695 184.023 110.972 183.396 111.449 182.94C111.926 182.484 112.565 182.235 113.226 182.249C113.272 182.249 113.314 182.271 113.36 182.271C113.256 182.671 113.258 183.091 113.368 183.489L114.331 186.934C113.958 187.143 113.536 187.246 113.109 187.233Z" fill="#2F2E41"/>
<path d="M130.716 180.994C130.402 182.784 126.878 184.043 122.641 183.824C118.744 183.645 115.558 182.278 114.974 180.658C115.19 180.594 115.415 180.564 115.64 180.569L130.353 180.949C130.475 180.953 130.596 180.968 130.716 180.994Z" fill="#3F3D56"/>
<path d="M116.772 149.584C117.51 149.046 118.356 148.676 119.252 148.5C120.147 148.324 121.071 148.346 121.957 148.565C122.843 148.785 123.67 149.195 124.38 149.768C125.09 150.342 125.666 151.063 126.066 151.883L148.095 149.22L142.949 159.529L122.819 160.477C121.397 161.058 119.81 161.098 118.36 160.589C116.911 160.079 115.698 159.056 114.953 157.714C114.207 156.371 113.981 154.802 114.316 153.303C114.652 151.805 115.526 150.481 116.773 149.584L116.772 149.584Z" fill="#9E616A"/>
<path d="M188.613 128.587C187.964 129.86 187.173 131.342 186.285 132.958C183.165 138.654 178.88 146.005 175.58 151.6C172.76 156.372 170.655 159.87 170.597 159.968L170.507 160.112L151.123 160.549L146.963 160.642L145.548 160.675L130.359 161.017L130.503 160.116L131.922 151.178L132.067 150.265L145.371 148.057L150.234 147.253L161.022 145.464L162.896 139.938C166.197 130.226 171.712 121.413 179.006 114.195C179.219 113.989 179.436 113.794 179.663 113.61C179.862 113.452 180.064 113.3 180.27 113.163C181.143 114.4 181.923 115.518 182.584 116.417L184.183 118.592C186.367 121.564 187.879 124.974 188.613 128.587Z" fill="#FCBA04"/>
<path d="M108.01 161.619C108.169 162.082 108.471 162.482 108.872 162.763C109.273 163.044 109.753 163.19 110.242 163.181L119.807 162.935C120.3 162.926 120.777 162.757 121.166 162.454C121.556 162.151 121.836 161.731 121.966 161.256L123.32 146.796C123.8 147.013 124.323 147.121 124.85 147.11C125.775 147.087 126.653 146.698 127.29 146.028C127.928 145.358 128.273 144.463 128.25 143.539C128.226 142.615 127.837 141.738 127.166 141.101C126.496 140.464 125.6 140.119 124.675 140.143C124.464 140.142 124.254 140.164 124.048 140.208C123.824 139.965 123.552 139.773 123.249 139.642C122.946 139.512 122.618 139.446 122.288 139.449L107.576 139.829C107.454 139.833 107.332 139.848 107.213 139.874C106.89 139.934 106.584 140.062 106.315 140.25C106.046 140.439 105.821 140.682 105.654 140.964C105.488 141.247 105.384 141.562 105.349 141.888C105.314 142.214 105.35 142.544 105.453 142.855L108.01 161.619ZM123.598 145.814L124.561 142.368C124.67 141.97 124.673 141.551 124.568 141.151C124.615 141.151 124.656 141.129 124.703 141.129C125.363 141.115 126.002 141.364 126.479 141.82C126.956 142.276 127.233 142.903 127.249 143.563C127.264 144.222 127.017 144.861 126.562 145.339C126.106 145.817 125.48 146.096 124.82 146.113C124.393 146.126 123.97 146.023 123.598 145.814Z" fill="#CCCCCC"/>
<path d="M107.213 139.874C107.526 141.664 111.05 142.923 115.288 142.704C119.185 142.525 122.371 141.158 122.954 139.538C122.738 139.474 122.514 139.444 122.289 139.449L107.576 139.829C107.454 139.833 107.332 139.848 107.213 139.874Z" fill="#3F3D56"/>
</g>
<defs>
<clipPath id="clip0_65_147">
<rect width="304" height="304" fill="white"/>
</clipPath>
</defs>
</svg>
